<?xml version="1.0" standalone="no"?>
<!DOCTYPE svg PUBLIC "-//W3C//DTD SVG 20010904//EN"
 "http://www.w3.org/TR/2001/REC-SVG-20010904/DTD/svg10.dtd">
<svg version="1.0" xmlns="http://www.w3.org/2000/svg"
 width="2344.000000pt" height="2344.000000pt" viewBox="0 0 2344.000000 2344.000000"
 preserveAspectRatio="xMidYMid meet">
<metadata>
Created by potrace 1.11, written by Peter Selinger 2001-2013
</metadata>
<g transform="translate(0.000000,2344.000000) scale(0.100000,-0.100000)"
fill="#000000" stroke="none">
<path d="M13206 22889 c5 -9 2 -10 -10 -6 -9 4 -15 3 -12 -2 3 -5 -6 -12 -19
-15 -16 -4 -23 -11 -19 -18 5 -7 3 -8 -7 -2 -24 15 -42 14 -29 -1 9 -10 5 -13
-19 -11 -17 1 -29 0 -26 -2 5 -5 -20 -32 -30 -32 -3 0 -3 6 1 13 4 6 -2 3 -14
-7 -12 -11 -22 -15 -22 -10 0 5 -5 1 -11 -9 -9 -15 -13 -16 -27 -5 -9 7 -14 9
-10 4 10 -11 -14 -35 -29 -29 -7 3 -13 0 -13 -7 0 -9 -4 -9 -17 1 -9 8 -14 9
-10 3 8 -13 -19 -27 -34 -18 -5 3 -9 -2 -9 -11 0 -13 -4 -14 -21 -4 -17 9 -20
8 -14 -2 6 -9 3 -11 -8 -6 -9 3 -18 1 -21 -6 -3 -8 -5 -6 -5 3 -1 13 -2 13
-11 0 -5 -9 -25 -15 -49 -15 -23 0 -41 -4 -41 -8 0 -5 -8 -3 -17 4 -14 12 -16
12 -8 0 6 -11 4 -13 -10 -8 -9 4 -23 3 -30 -3 -10 -8 -15 -8 -21 1 -5 8 -3 9
6 4 9 -5 11 -4 6 3 -5 9 -13 9 -27 2 -15 -9 -19 -7 -20 7 0 14 -2 13 -9 -4 -5
-13 -12 -23 -15 -23 -4 0 -4 4 -1 9 8 13 -18 21 -35 11 -9 -6 -20 -3 -31 7
-10 9 -21 13 -25 10 -3 -4 -1 -7 5 -7 7 0 12 -5 12 -11 0 -7 -11 -4 -26 6 -15
9 -23 12 -20 6 4 -6 2 -11 -3 -11 -6 0 -11 5 -11 10 0 6 -5 10 -11 10 -5 0 -7
-5 -3 -11 5 -8 1 -8 -14 0 -14 7 -23 8 -27 1 -3 -5 -12 -10 -18 -10 -7 0 -6 4
3 11 11 8 7 9 -18 6 -22 -2 -36 1 -39 9 -4 10 -10 11 -25 3 -15 -8 -19 -8 -14
0 7 11 1 13 -46 13 -16 1 -28 6 -28 12 0 6 -5 4 -10 -4 -7 -11 -10 -11 -10 -2
0 7 -6 12 -12 11 -7 -1 -21 1 -31 6 -10 4 -23 2 -31 -4 -11 -10 -16 -8 -24 5
-5 9 -15 14 -23 12 -8 -3 -22 -1 -31 4 -12 5 -18 5 -18 -1 0 -6 -7 -8 -15 -5
-8 4 -12 11 -8 18 4 7 1 6 -9 -1 -8 -8 -32 -11 -56 -9 -25 2 -42 0 -42 -6 0
-6 -6 -5 -15 2 -11 9 -15 9 -15 1 0 -9 -5 -9 -21 0 -12 6 -19 7 -15 1 3 -5 -2
-13 -12 -17 -27 -12 -43 -14 -37 -4 4 5 -1 6 -9 3 -9 -3 -13 -11 -10 -16 4 -6
-4 -4 -17 3 -23 12 -23 11 -9 -7 8 -10 10 -16 6 -12 -5 4 -15 3 -23 -3 -7 -6
-13 -8 -13 -4 0 4 -7 2 -15 -5 -8 -6 -20 -8 -27 -4 -9 6 -9 3 1 -9 12 -15 12
-17 -3 -11 -10 4 -16 1 -16 -7 0 -7 -3 -10 -6 -6 -11 11 -62 -22 -69 -44 -5
-16 -9 -18 -15 -9 -6 9 -10 7 -14 -8 -4 -12 -20 -31 -37 -43 -17 -12 -26 -26
-23 -32 4 -7 4 -9 -1 -5 -9 9 -50 -11 -41 -19 8 -9 -24 -43 -41 -43 -12 0 -18
-13 -14 -34 1 -5 -5 -3 -14 4 -13 11 -15 10 -9 -4 4 -9 3 -16 -2 -15 -22 4
-34 -2 -35 -18 0 -11 -3 -13 -6 -5 -2 6 -9 12 -14 12 -6 0 -7 -4 -4 -10 3 -5
1 -10 -5 -10 -6 0 -9 -4 -6 -9 4 -5 -4 -7 -16 -4 -17 3 -19 2 -10 -5 11 -7 8
-11 -9 -15 -13 -4 -26 -2 -30 4 -4 7 -9 4 -12 -6 -4 -9 -3 -13 2 -10 5 3 12 2
15 -3 2 -4 -5 -9 -16 -9 -11 -1 -30 -10 -41 -20 -21 -18 -21 -17 -7 1 14 18
14 19 -8 7 -12 -7 -20 -16 -17 -21 3 -5 -4 -7 -15 -5 -28 5 -52 -4 -43 -18 3
-6 1 -7 -5 -3 -7 4 -18 4 -24 -1 -7 -4 -20 -8 -28 -8 -8 0 -14 -6 -12 -13 1
-8 -2 -11 -9 -6 -6 3 -15 0 -20 -7 -7 -12 -9 -12 -9 -1 0 11 -9 9 -34 -6 -25
-15 -36 -17 -41 -9 -3 7 -3 2 -1 -10 3 -19 1 -21 -14 -13 -13 7 -20 6 -24 -5
-3 -8 -11 -15 -18 -15 -9 0 -9 3 2 11 12 9 12 10 -3 5 -10 -3 -21 -6 -23 -6
-3 0 -2 -6 2 -12 6 -10 4 -10 -8 0 -14 11 -18 10 -27 -5 -7 -13 -10 -14 -11
-4 0 11 -4 10 -16 -5 -8 -10 -13 -13 -9 -6 3 6 2 12 -4 12 -5 0 -11 -5 -13
-11 -2 -5 -19 -12 -38 -13 -21 -2 -34 -8 -32 -15 2 -9 -3 -9 -17 -1 -25 13
-34 13 -26 0 3 -5 0 -11 -7 -11 -7 -1 -17 -2 -23 -4 -5 -1 -18 -3 -28 -3 -12
-1 -15 -6 -11 -14 6 -10 4 -10 -8 0 -11 9 -18 10 -23 2 -3 -5 -12 -10 -18 -10
-7 0 -6 4 3 10 11 7 12 10 2 10 -8 0 -28 -10 -45 -22 -17 -12 -27 -17 -23 -10
9 15 -16 16 -31 1 -8 -8 -13 -8 -17 0 -5 7 -15 6 -32 -5 -13 -9 -27 -14 -31
-10 -3 3 -12 1 -20 -5 -8 -8 -13 -8 -13 -1 0 12 -26 10 -37 -3 -4 -4 -2 -5 6
0 10 6 12 4 7 -4 -6 -9 -11 -9 -21 -1 -9 8 -14 6 -19 -7 -6 -15 -8 -15 -17 -3
-8 13 -10 13 -18 1 -8 -12 -12 -12 -24 -3 -12 10 -18 9 -31 -4 -10 -9 -20 -14
-23 -10 -3 3 -13 1 -20 -6 -11 -9 -17 -9 -25 3 -7 11 -11 11 -15 1 -2 -6 -9
-10 -14 -6 -5 3 -9 0 -9 -7 0 -10 -3 -10 -12 -1 -7 7 -17 8 -30 1 -10 -5 -18
-6 -18 -2 0 4 -5 1 -10 -7 -9 -13 -10 -13 -10 0 0 10 -3 11 -8 3 -4 -6 -20
-15 -36 -19 -22 -5 -27 -4 -21 6 6 9 3 10 -15 0 -12 -6 -24 -9 -27 -6 -4 3
-13 0 -21 -7 -13 -9 -14 -9 -8 0 5 9 2 11 -9 7 -10 -4 -14 -13 -11 -23 4 -11
2 -10 -9 3 -8 11 -15 15 -15 9 0 -6 -8 -10 -17 -9 -10 2 -21 -2 -25 -8 -5 -7
-8 -6 -8 4 0 12 -2 12 -9 2 -4 -7 -19 -14 -32 -14 -13 -1 -30 -6 -36 -11 -9
-6 -13 -5 -13 4 -1 10 -4 9 -11 -3 -5 -9 -16 -15 -23 -12 -8 3 -17 1 -21 -5
-3 -6 -12 -11 -18 -11 -7 0 -6 4 3 10 10 7 11 10 2 10 -7 0 -15 -7 -18 -15 -4
-8 -10 -12 -15 -9 -6 3 -15 1 -22 -4 -7 -5 -20 -8 -30 -7 -10 2 -23 -5 -29
-15 -6 -10 -17 -16 -25 -13 -7 3 -15 -2 -19 -10 -3 -9 -12 -13 -20 -10 -8 3
-14 -1 -14 -8 0 -7 -3 -10 -6 -6 -8 8 -33 -16 -27 -26 3 -5 -5 -4 -17 3 -13 7
-20 8 -16 2 3 -6 -3 -14 -15 -17 -13 -4 -18 -12 -15 -21 3 -9 1 -12 -4 -9 -12
8 -53 -19 -43 -28 3 -4 -4 -7 -16 -7 -12 0 -20 -3 -18 -7 2 -5 -8 -19 -21 -33
-14 -14 -21 -19 -17 -11 5 9 4 12 -3 7 -7 -4 -12 -14 -12 -22 0 -9 -5 -12 -12
-8 -8 5 -9 2 -5 -9 3 -10 2 -17 -4 -17 -5 0 -20 -10 -32 -21 -12 -12 -15 -18
-7 -14 8 4 5 -2 -8 -14 -13 -13 -27 -19 -35 -15 -7 5 -6 0 3 -12 8 -10 11 -16
6 -12 -11 9 -35 -14 -29 -29 3 -7 -3 -16 -12 -19 -13 -5 -14 -9 -3 -15 10 -7
8 -9 -6 -9 -12 0 -16 -5 -12 -16 3 -8 2 -12 -4 -9 -6 3 -10 -1 -10 -10 0 -9
-4 -13 -10 -10 -6 4 -7 -1 -3 -11 5 -13 3 -15 -7 -9 -9 5 -11 4 -6 -3 4 -6 0
-22 -9 -35 -8 -13 -12 -27 -8 -30 3 -4 1 -7 -5 -7 -7 0 -12 -7 -12 -16 0 -9
-10 -30 -22 -47 -13 -18 -16 -28 -7 -23 7 4 5 0 -5 -8 -11 -9 -16 -16 -12 -16
5 0 3 -6 -3 -13 -6 -8 -8 -17 -4 -20 3 -4 1 -7 -5 -7 -6 0 -9 -6 -6 -14 3 -8
0 -17 -7 -22 -8 -5 -10 -3 -4 6 5 9 4 11 -4 6 -9 -6 -9 -11 1 -24 11 -13 11
-14 -1 -7 -11 6 -13 3 -9 -13 4 -12 2 -20 -3 -16 -5 3 -9 -5 -9 -17 0 -12 -8
-28 -17 -36 -10 -8 -12 -12 -5 -8 6 3 12 1 12 -4 0 -6 -4 -11 -10 -11 -5 0 -6
-8 -3 -17 5 -12 2 -15 -10 -10 -11 4 -14 2 -11 -8 3 -7 -2 -27 -10 -44 -9 -17
-17 -34 -19 -38 -1 -5 -6 -7 -11 -5 -5 2 -4 -4 4 -12 9 -12 9 -16 1 -16 -7 0
-9 -4 -6 -10 3 -5 1 -10 -6 -10 -7 0 -9 -3 -6 -7 4 -3 0 -17 -8 -29 -11 -17
-12 -24 -2 -27 7 -3 5 -6 -5 -6 -10 -1 -15 -7 -12 -14 2 -7 -5 -23 -16 -35
-13 -14 -16 -22 -8 -22 9 0 10 -2 2 -8 -7 -4 -14 -16 -16 -27 -2 -11 -9 -19
-14 -18 -6 1 -11 -4 -11 -12 0 -8 5 -11 11 -8 6 4 5 -1 -3 -10 -7 -9 -18 -14
-25 -10 -6 4 -5 0 2 -9 10 -13 10 -18 1 -24 -8 -5 -9 -3 -4 7 7 12 6 12 -7 1
-10 -8 -14 -20 -11 -29 4 -11 2 -14 -5 -9 -8 5 -12 0 -12 -14 0 -12 -4 -18
-10 -15 -5 3 -10 2 -10 -4 0 -5 6 -12 13 -14 7 -4 6 -6 -4 -6 -9 -1 -20 -9
-23 -18 -6 -15 -8 -15 -16 -3 -6 8 -10 10 -10 4 0 -5 5 -15 11 -21 9 -9 5 -11
-12 -9 -13 2 -33 -6 -44 -17 -11 -11 -14 -16 -6 -12 10 6 12 4 7 -4 -6 -9 -12
-9 -24 1 -10 7 -14 9 -10 4 11 -13 -16 -35 -47 -39 -14 -2 -31 -10 -36 -18 -5
-8 -9 -10 -9 -5 0 5 -8 2 -17 -5 -15 -12 -16 -12 -8 1 8 13 7 13 -9 1 -15 -13
-19 -13 -27 0 -7 11 -9 8 -10 -11 0 -23 -1 -23 -9 -5 -5 11 -9 14 -9 6 -1 -11
-4 -11 -18 0 -9 8 -14 9 -10 3 4 -7 0 -15 -9 -18 -10 -4 -13 -2 -8 6 5 7 0 9
-13 6 -11 -3 -28 -1 -38 5 -12 6 -16 6 -12 -1 4 -6 -5 -9 -24 -7 -17 1 -35 8
-40 16 -6 11 -9 8 -9 -8 0 -13 -5 -23 -11 -23 -5 0 -8 4 -4 9 3 5 1 12 -5 16
-5 3 -10 0 -10 -7 0 -9 -3 -9 -10 2 -6 10 -10 11 -10 3 0 -7 -5 -13 -11 -13
-5 0 -7 5 -3 11 4 8 1 8 -13 1 -12 -7 -24 -7 -37 0 -14 8 -17 7 -12 -1 9 -14
0 -14 -26 0 -15 8 -19 8 -14 0 4 -6 3 -11 -3 -11 -5 0 -15 8 -21 18 -10 15
-11 15 -7 -4 3 -13 -1 -21 -9 -21 -7 0 -11 4 -9 8 3 4 -9 9 -25 11 -20 3 -27
1 -21 -6 6 -7 1 -11 -15 -11 -14 0 -24 6 -24 14 0 11 -4 9 -16 -5 -8 -10 -12
-12 -8 -4 6 12 4 13 -7 3 -16 -16 -33 -17 -23 -2 3 6 -6 3 -22 -7 -15 -11 -25
-13 -21 -6 5 6 4 12 -2 12 -6 0 -11 -5 -11 -10 0 -7 -6 -7 -17 -2 -22 11 -46
4 -37 -10 4 -5 -4 -3 -18 6 -22 14 -26 14 -48 -1 -13 -9 -20 -12 -17 -6 4 7
-2 10 -17 9 -13 0 -22 -4 -19 -8 2 -5 -1 -8 -6 -8 -6 0 -11 5 -11 11 0 5 -5 7
-10 4 -6 -4 -8 -11 -5 -16 4 -5 -5 -5 -21 1 -23 9 -26 8 -20 -7 6 -17 5 -17
-8 0 -13 17 -14 17 -21 0 -5 -13 -9 -14 -12 -5 -4 9 -8 10 -18 2 -7 -6 -17
-10 -21 -9 -29 5 -54 -2 -48 -13 5 -8 0 -7 -11 2 -11 9 -16 10 -11 3 4 -7 3
-13 -1 -13 -5 0 -15 6 -22 13 -11 10 -12 9 -6 -2 6 -11 3 -13 -13 -9 -12 3
-23 1 -25 -5 -2 -6 -13 -11 -25 -12 -16 -1 -19 1 -11 11 8 9 5 11 -10 7 -12
-3 -21 -10 -21 -15 0 -6 -11 -8 -25 -6 -14 3 -25 1 -25 -4 0 -5 -4 -6 -10 -3
-5 3 -10 1 -10 -6 0 -8 -4 -8 -15 1 -13 11 -14 10 -9 -4 5 -12 0 -16 -21 -16
-15 0 -24 -4 -20 -10 4 -6 -1 -7 -10 -3 -10 3 -21 0 -26 -8 -7 -11 -9 -11 -9
-1 0 7 -5 10 -10 7 -6 -4 -8 -10 -6 -14 3 -4 -1 -8 -9 -8 -8 0 -11 5 -8 11 4
6 -3 3 -15 -7 -11 -11 -24 -17 -29 -14 -10 6 -34 -18 -26 -26 3 -3 -5 -3 -18
0 -18 5 -21 3 -15 -12 5 -15 4 -16 -9 -5 -9 7 -15 8 -15 2 0 -5 -13 -15 -30
-21 -16 -5 -30 -15 -30 -21 0 -6 -4 -9 -9 -5 -5 3 -12 1 -16 -5 -4 -6 -11 -7
-17 -4 -7 4 -8 2 -4 -4 4 -7 2 -12 -3 -12 -6 0 -11 -6 -11 -14 0 -9 -7 -12
-20 -9 -12 3 -20 0 -20 -6 0 -7 -5 -9 -10 -6 -6 4 -10 3 -9 -2 3 -18 -1 -36
-8 -30 -3 4 -11 -2 -17 -12 -6 -11 -22 -34 -35 -52 -14 -18 -18 -29 -10 -25 7
4 6 1 -5 -8 -11 -9 -15 -20 -10 -28 4 -7 4 -10 -1 -6 -12 11 -35 -11 -35 -34
0 -12 -4 -17 -12 -12 -7 5 -9 2 -5 -9 4 -11 2 -14 -9 -10 -10 4 -12 0 -7 -13
4 -12 3 -15 -5 -10 -7 4 -12 1 -12 -7 0 -8 -7 -18 -16 -21 -9 -4 -14 -9 -11
-12 8 -9 -16 -33 -27 -26 -5 3 -6 0 -2 -6 3 -6 -3 -17 -15 -25 -15 -11 -17
-16 -7 -20 7 -3 3 -6 -9 -6 -17 -1 -21 -5 -16 -18 5 -12 3 -14 -7 -8 -10 6
-12 4 -7 -8 4 -10 2 -16 -6 -14 -7 1 -11 -4 -9 -11 1 -7 -5 -15 -13 -18 -8 -3
-12 -11 -8 -17 4 -6 0 -8 -10 -4 -11 4 -15 1 -12 -14 2 -10 0 -19 -5 -19 -5 0
-7 -9 -5 -19 3 -15 -1 -18 -13 -14 -9 3 -14 3 -10 -2 4 -4 3 -14 -3 -21 -7 -8
-6 -14 2 -20 8 -5 9 -3 4 6 -5 9 -4 11 4 6 6 -4 9 -12 5 -17 -3 -5 -9 -7 -13
-5 -4 3 -12 -4 -19 -14 -9 -14 -9 -21 0 -26 7 -5 8 -3 3 6 -5 9 -4 11 3 6 13
-8 -6 -46 -23 -46 -5 0 -3 -4 5 -10 12 -8 12 -10 -3 -16 -14 -5 -15 -9 -6 -20
9 -11 9 -14 -1 -14 -8 0 -9 -10 -5 -29 4 -18 2 -32 -5 -36 -9 -6 -9 -10 1 -16
11 -7 11 -9 -1 -9 -13 0 -13 -1 0 -10 12 -8 12 -10 1 -10 -11 0 -11 -3 0 -17
8 -10 9 -14 2 -10 -6 4 -14 3 -17 -2 -3 -5 2 -12 11 -15 12 -5 14 -9 5 -18
-14 -14 -16 -32 -4 -24 5 3 9 -1 9 -9 0 -8 -3 -12 -7 -10 -4 2 -7 -2 -7 -10 0
-8 4 -12 9 -9 8 5 12 -9 9 -33 -1 -7 3 -13 10 -13 8 0 8 -4 -1 -15 -10 -12 -9
-15 4 -15 10 0 14 -4 11 -10 -3 -5 -1 -10 6 -10 6 0 18 -8 26 -17 9 -11 12
-12 7 -3 -4 8 3 5 15 -7 12 -13 33 -26 46 -29 14 -3 25 -9 25 -13 0 -4 10 -7
22 -8 11 -1 24 -7 28 -14 6 -8 9 -8 13 2 4 10 6 9 6 -3 1 -10 6 -18 12 -18 5
0 7 4 4 10 -3 6 1 7 9 4 9 -3 16 -10 16 -15 0 -6 10 -5 21 2 16 8 20 8 14 -1
-9 -14 27 -10 37 5 4 6 8 1 9 -10 l0 -20 9 20 c5 11 9 14 9 7 1 -9 6 -10 20
-2 26 13 34 13 25 -2 -6 -10 -5 -10 7 -1 12 10 18 10 28 0 10 -9 11 -8 5 7 -6
16 -5 17 14 7 14 -7 22 -8 22 -2 0 6 7 8 15 5 8 -4 15 -1 15 6 0 7 6 6 16 -4
19 -19 31 -21 15 -3 -8 10 -7 14 4 14 8 0 15 -5 15 -11 0 -5 7 -1 16 10 8 10
13 13 9 7 -3 -7 -1 -13 4 -13 6 0 11 5 11 11 0 8 6 7 17 -2 11 -10 14 -10 9
-1 -4 6 -3 12 1 12 5 0 15 -6 22 -12 10 -9 12 -9 7 -1 -3 6 -2 14 4 18 5 3 10
2 10 -2 0 -5 9 -9 19 -9 15 0 17 4 10 13 -8 9 -4 10 20 3 20 -6 33 -5 37 2 5
7 2 8 -6 3 -9 -6 -11 -4 -6 4 6 9 13 8 27 -5 18 -17 20 -16 35 2 8 10 13 13 9
7 -3 -7 -2 -13 2 -13 5 0 15 6 22 13 11 10 12 9 6 -1 -5 -10 -2 -13 11 -11 11
2 25 0 32 -4 8 -6 12 -2 12 10 0 14 2 15 9 4 9 -14 69 -20 88 -8 16 10 24 -4
11 -20 -8 -11 -7 -12 5 -7 18 7 50 -19 39 -31 -4 -5 -2 -6 3 -2 21 11 38 -9
26 -30 -5 -11 -7 -23 -4 -27 11 -11 12 -36 2 -36 -6 0 -8 -4 -4 -9 3 -5 1 -13
-5 -16 -8 -5 -8 -11 0 -20 8 -9 7 -17 -4 -28 -11 -10 -12 -17 -4 -25 8 -8 7
-13 -5 -18 -9 -3 -14 -11 -10 -17 4 -7 0 -8 -12 -3 -16 6 -16 4 -4 -11 8 -10
9 -14 2 -10 -7 5 -21 -6 -36 -28 -13 -19 -27 -32 -30 -28 -4 3 -7 -1 -7 -11 0
-21 -25 -48 -34 -38 -4 3 -4 -2 0 -11 5 -13 1 -20 -15 -24 -11 -3 -18 -9 -15
-14 3 -5 -2 -9 -10 -9 -9 0 -16 -5 -16 -11 0 -5 5 -7 12 -3 7 4 8 3 4 -5 -4
-6 -12 -9 -17 -6 -5 4 -9 -2 -9 -12 0 -15 -2 -16 -10 -3 -7 11 -10 12 -10 2 0
-17 -26 -43 -34 -35 -3 4 -6 -1 -6 -11 0 -9 -4 -15 -9 -12 -5 3 -15 -2 -22
-11 -12 -14 -12 -16 0 -8 10 5 12 4 7 -4 -4 -6 -11 -9 -16 -6 -5 3 -18 -3 -30
-15 -11 -11 -20 -17 -20 -13 0 4 -13 -8 -30 -27 -16 -18 -33 -31 -36 -27 -4 4
-13 -1 -21 -11 -10 -11 -12 -12 -8 -2 4 9 1 8 -8 -3 -9 -10 -19 -19 -24 -20
-4 -1 -7 -6 -5 -10 1 -5 -2 -6 -7 -3 -5 4 -26 -3 -46 -14 -20 -11 -33 -15 -29
-8 4 7 -3 3 -15 -9 -12 -13 -31 -23 -42 -23 -11 0 -18 -3 -16 -7 3 -5 -11 -9
-31 -11 -20 -1 -39 -7 -43 -13 -4 -7 -11 -9 -17 -5 -6 3 -12 1 -14 -5 -2 -7
-13 -13 -24 -13 -11 -1 -26 -6 -33 -11 -10 -6 -12 -4 -7 6 4 8 1 6 -7 -4 -14
-17 -16 -17 -25 -2 -8 16 -9 16 -15 1 -5 -12 -3 -15 6 -10 6 4 9 3 4 -1 -11
-13 -49 -17 -42 -5 3 5 2 10 -3 10 -6 0 -13 -7 -16 -16 -5 -12 -10 -13 -19 -6
-8 7 -18 7 -27 2 -13 -8 -13 -10 -1 -10 8 0 12 -3 9 -6 -4 -3 -16 -1 -27 6
-12 6 -21 7 -21 2 0 -5 -12 -7 -26 -4 -19 3 -25 1 -20 -7 9 -14 -16 -10 -26 4
-5 6 -8 4 -8 -5 0 -13 -1 -13 -10 0 -8 12 -10 12 -10 1 0 -11 -3 -11 -17 0
-10 8 -14 9 -10 2 5 -8 -2 -11 -21 -11 -15 1 -39 -4 -52 -11 -22 -11 -23 -11
-7 2 16 13 16 15 2 21 -9 3 -13 2 -10 -4 6 -10 -13 -14 -47 -11 -10 1 -18 -4
-19 -11 0 -7 -4 -4 -9 7 -5 11 -9 14 -9 7 -1 -9 -6 -10 -19 -3 -14 7 -25 6
-42 -6 -13 -9 -20 -11 -16 -5 11 19 -5 14 -21 -5 -8 -10 -12 -13 -9 -6 4 6 2
14 -4 18 -6 3 -13 -1 -16 -9 -3 -9 -10 -16 -16 -16 -5 0 -6 4 -3 10 4 6 -2 7
-17 1 -13 -4 -29 -6 -37 -3 -10 3 -11 0 -5 -9 6 -11 3 -10 -11 1 -17 13 -18
13 -13 -1 6 -16 -17 -20 -40 -5 -8 5 -12 1 -12 -11 0 -15 -2 -16 -10 -3 -6 10
-10 11 -10 3 0 -7 -8 -13 -18 -13 -10 0 -24 -6 -31 -12 -11 -11 -12 -10 -6 2
7 12 6 13 -7 3 -8 -7 -18 -10 -21 -6 -4 3 -7 1 -7 -6 0 -8 -6 -11 -16 -7 -10
4 -13 2 -8 -6 5 -8 2 -9 -9 -5 -12 4 -17 1 -17 -11 0 -15 -2 -15 -10 -2 -7 11
-10 11 -10 2 0 -7 -4 -10 -10 -7 -5 3 -10 2 -10 -4 0 -6 -16 -18 -35 -27 -19
-9 -35 -21 -35 -26 0 -6 -8 -4 -17 3 -9 8 -14 10 -11 4 3 -5 0 -16 -8 -23 -8
-7 -14 -10 -14 -7 0 3 -14 -8 -30 -25 -17 -17 -30 -35 -30 -40 0 -6 -3 -9 -7
-9 -21 3 -33 -2 -31 -13 2 -7 -3 -12 -10 -10 -8 1 -11 -2 -7 -8 4 -6 -5 -20
-20 -32 -14 -11 -24 -26 -21 -34 3 -7 -4 -16 -14 -19 -11 -3 -19 -12 -17 -18
1 -7 -3 -11 -9 -10 -7 1 -10 -6 -7 -17 4 -15 0 -20 -13 -20 -16 0 -17 -2 -4
-10 13 -8 12 -10 -3 -10 -10 0 -15 -5 -12 -10 3 -6 -1 -17 -9 -26 -9 -9 -14
-20 -11 -25 4 -5 1 -9 -5 -9 -6 0 -8 -4 -5 -10 3 -5 1 -10 -4 -10 -6 0 -11
-10 -11 -22 0 -12 -8 -30 -17 -41 -10 -11 -12 -17 -6 -13 9 5 11 2 7 -8 -3 -9
-13 -16 -21 -16 -8 0 -11 -5 -8 -10 4 -6 12 -8 18 -4 7 3 5 0 -3 -8 -15 -13
-22 -31 -23 -55 0 -7 -5 -13 -11 -13 -6 0 -4 -5 4 -10 13 -9 13 -10 0 -10 -13
0 -13 -1 0 -10 12 -8 12 -10 -5 -10 -17 0 -17 -2 -5 -10 12 -8 12 -10 1 -10
-8 0 -11 -3 -8 -7 4 -3 2 -13 -5 -20 -9 -11 -9 -17 3 -24 12 -8 12 -10 -1 -18
-8 -6 -11 -13 -7 -17 4 -4 -1 -13 -10 -19 -14 -10 -15 -16 -5 -27 9 -11 9 -17
0 -26 -9 -9 -9 -12 1 -12 11 0 11 -3 1 -15 -7 -9 -10 -18 -6 -22 3 -3 6 0 6 7
0 7 3 10 6 7 4 -4 1 -13 -6 -22 -10 -12 -10 -15 1 -15 9 -1 8 -5 -5 -15 -14
-11 -16 -15 -5 -15 12 0 12 -2 -1 -10 -13 -8 -13 -10 -1 -10 11 0 9 -4 -5 -15
-11 -9 -13 -14 -5 -13 8 2 14 -6 16 -19 1 -15 -4 -23 -14 -24 -12 0 -11 -3 4
-9 11 -5 16 -9 10 -9 -5 -1 -10 -16 -10 -35 0 -25 4 -32 15 -29 11 3 10 1 -3
-10 -18 -15 -24 -33 -8 -22 5 3 12 1 15 -4 4 -5 2 -12 -4 -16 -6 -4 -7 -12 -3
-18 11 -17 10 -41 -2 -49 -6 -5 -5 -8 3 -8 9 0 11 -7 7 -21 -4 -12 -3 -19 2
-16 5 3 8 -7 7 -24 -1 -16 3 -29 9 -29 7 0 5 -5 -3 -10 -10 -6 -11 -10 -2 -10
6 0 12 -5 12 -11 0 -5 -5 -7 -11 -3 -7 4 -7 -1 1 -16 6 -12 9 -28 6 -36 -3 -8
-2 -12 3 -9 5 3 12 1 16 -5 3 -5 0 -10 -7 -10 -9 0 -9 -3 2 -10 13 -9 13 -10
0 -10 -9 0 -11 -3 -5 -8 12 -8 13 -22 2 -39 -5 -9 -3 -11 7 -7 11 4 13 0 9
-17 -5 -16 -3 -20 6 -14 10 6 11 3 2 -14 -10 -18 -9 -22 5 -28 15 -6 15 -7 -2
-20 -15 -11 -16 -13 -2 -13 22 0 33 -19 20 -32 -7 -7 -6 -18 3 -35 8 -14 11
-32 8 -40 -3 -8 0 -19 8 -25 11 -8 11 -11 1 -15 -10 -4 -9 -10 4 -30 9 -14 11
-22 5 -19 -15 10 -14 -7 2 -23 10 -11 9 -12 -1 -6 -11 6 -12 3 -3 -13 14 -27
14 -35 -1 -25 -7 4 -5 -6 6 -21 10 -16 13 -25 7 -22 -14 9 -14 -7 -1 -20 8 -8
6 -15 -5 -24 -14 -12 -14 -15 2 -33 10 -11 12 -17 6 -13 -9 5 -12 -1 -9 -23 2
-17 0 -31 -4 -31 -4 0 -5 -12 -2 -26 4 -21 2 -25 -9 -19 -11 6 -11 5 -2 -5 12
-14 6 -43 -8 -35 -4 3 -6 -4 -4 -15 2 -11 0 -18 -4 -15 -5 3 -12 -6 -15 -19
-3 -14 -15 -27 -26 -31 -11 -3 -19 -9 -18 -13 4 -15 -14 -52 -22 -47 -5 3 -11
-4 -15 -15 -4 -11 -10 -18 -15 -15 -4 3 -13 -9 -19 -25 -5 -17 -13 -30 -16
-30 -3 0 -3 5 0 10 3 6 1 10 -4 10 -10 0 -15 -14 -12 -33 1 -5 -3 -6 -8 -3 -5
4 -13 0 -18 -7 -4 -7 -16 -17 -27 -20 -10 -4 -16 -13 -13 -21 3 -8 -1 -13 -11
-12 -9 0 -16 -4 -15 -11 2 -7 -6 -10 -19 -8 -11 3 -18 2 -15 -1 5 -6 -27 -42
-40 -46 -5 -1 -18 -13 -30 -26 -12 -13 -26 -21 -32 -18 -5 4 -12 -3 -16 -14
-5 -17 -19 -26 -28 -17 -5 4 -35 -28 -31 -34 2 -4 -3 -10 -12 -13 -10 -4 -13
-2 -8 7 4 6 -2 3 -13 -8 -11 -11 -19 -23 -16 -27 2 -4 -4 -5 -13 -1 -12 4 -15
3 -10 -5 4 -7 2 -12 -4 -12 -15 0 -70 -55 -70 -69 0 -6 -3 -10 -7 -10 -22 4
-33 -2 -27 -13 5 -8 2 -9 -10 -5 -10 4 -15 3 -11 -3 3 -5 -4 -14 -15 -20 -11
-6 -18 -15 -15 -20 3 -6 -1 -7 -9 -4 -10 4 -18 -1 -22 -10 -5 -13 -9 -14 -20
-5 -11 9 -14 9 -14 0 0 -7 -4 -9 -10 -6 -6 3 -7 -1 -4 -10 4 -11 2 -14 -9 -9
-9 3 -22 -4 -32 -18 -11 -15 -15 -17 -12 -5 4 9 2 17 -3 17 -6 0 -10 -8 -10
-17 0 -15 -2 -16 -10 -3 -10 16 -12 15 -28 -15 -6 -11 -12 -14 -12 -7 0 8 -7
6 -22 -7 -11 -11 -25 -18 -30 -15 -5 3 -7 0 -6 -8 2 -7 -8 -14 -21 -16 -19 -3
-21 -6 -10 -13 11 -7 11 -9 -3 -9 -10 0 -18 -4 -18 -10 0 -5 -5 -10 -12 -10
-6 0 -18 -7 -27 -15 -9 -8 -26 -23 -39 -35 -12 -11 -28 -18 -34 -14 -7 4 -8 3
-4 -4 4 -7 1 -12 -8 -12 -9 0 -16 -7 -16 -16 0 -8 -4 -12 -10 -9 -5 3 -10 1
-10 -5 0 -6 -4 -9 -10 -5 -5 3 -20 -5 -32 -17 -13 -13 -27 -22 -31 -20 -5 1
-6 -2 -3 -7 7 -11 -18 -33 -27 -24 -4 3 -7 -4 -7 -16 0 -16 -4 -21 -15 -17 -8
3 -14 0 -12 -7 1 -7 -3 -11 -9 -10 -7 1 -11 -5 -10 -15 0 -9 -5 -16 -11 -14
-7 1 -13 -5 -13 -13 0 -8 -9 -19 -21 -25 -12 -7 -18 -18 -15 -26 3 -8 2 -13
-3 -10 -5 3 -12 -1 -15 -10 -3 -8 -11 -12 -17 -8 -7 4 -9 3 -5 -4 3 -5 0 -13
-6 -15 -10 -4 -10 -6 0 -6 10 -1 10 -4 0 -15 -7 -8 -16 -12 -19 -10 -4 2 -10
-3 -13 -12 -4 -10 -2 -13 7 -9 6 4 3 -1 -7 -9 -11 -9 -16 -16 -11 -16 4 0 -1
-8 -13 -18 -17 -15 -19 -21 -9 -32 9 -10 9 -11 -1 -5 -9 4 -15 0 -19 -14 -3
-11 -9 -18 -14 -16 -4 3 -6 -4 -4 -15 3 -14 -1 -20 -13 -20 -15 0 -15 -2 -2
-10 13 -9 7 -14 -12 -11 -5 0 -8 -8 -8 -20 0 -11 -4 -18 -9 -15 -5 3 -12 -1
-15 -10 -3 -8 -2 -12 4 -9 6 3 7 -1 4 -9 -3 -9 -9 -14 -13 -11 -4 2 -5 -10 -3
-27 3 -20 1 -29 -6 -24 -5 3 -12 -1 -16 -9 -3 -8 0 -17 6 -21 7 -5 5 -12 -7
-21 -11 -7 -13 -13 -6 -13 7 0 9 -5 6 -10 -4 -6 -12 -7 -18 -4 -9 5 -9 3 0 -6
10 -11 9 -16 -5 -27 -9 -8 -11 -12 -5 -8 18 9 16 -10 -2 -25 -11 -9 -12 -17
-4 -31 7 -14 6 -19 -2 -19 -7 0 -9 -3 -6 -7 4 -3 1 -13 -6 -21 -7 -10 -8 -13
-1 -9 8 4 11 -2 10 -17 0 -13 -4 -22 -7 -20 -6 3 -15 -17 -24 -54 -2 -6 1 -9
7 -6 12 8 6 -29 -7 -38 -6 -5 -4 -12 5 -18 13 -9 13 -10 0 -10 -13 0 -13 -1 0
-10 13 -8 8 -14 -11 -12 -3 1 -4 -11 -1 -25 4 -20 2 -24 -9 -18 -11 6 -12 5
-1 -6 13 -14 17 -73 4 -65 -11 6 -9 -25 2 -42 4 -7 5 -16 2 -19 -3 -3 -1 -12
5 -20 6 -7 8 -13 3 -13 -9 0 -10 -121 -1 -137 2 -4 3 -22 2 -40 -1 -18 3 -29
8 -26 5 3 7 -3 6 -13 -2 -11 0 -25 5 -33 6 -9 5 -12 -1 -8 -5 3 -10 0 -10 -8
0 -8 4 -12 8 -10 4 3 10 -2 13 -11 4 -11 2 -15 -8 -11 -10 4 -13 1 -9 -9 3 -7
9 -14 13 -14 4 0 10 -11 12 -25 3 -13 2 -22 -2 -20 -5 3 -11 -2 -14 -11 -4
-10 -2 -13 6 -8 7 5 9 0 6 -14 -4 -12 -2 -20 2 -17 5 3 11 1 15 -5 3 -5 0 -10
-7 -10 -11 0 -11 -2 0 -8 12 -8 20 -34 27 -87 1 -11 3 -24 4 -28 0 -5 6 -5 12
-1 7 4 7 -1 -1 -16 -7 -12 -8 -20 -3 -17 4 3 13 -6 20 -19 6 -13 7 -22 2 -18
-5 3 -9 0 -9 -5 0 -6 4 -11 10 -11 5 0 6 -7 3 -17 -4 -10 -2 -14 4 -10 11 7
28 -20 24 -37 -1 -5 1 -16 5 -25 4 -9 8 -22 10 -30 1 -8 8 -17 15 -21 6 -5 8
-13 4 -20 -6 -9 -4 -11 5 -5 10 6 12 4 7 -8 -3 -10 -2 -17 3 -17 6 0 10 -7 10
-15 0 -8 5 -15 11 -15 5 0 7 -4 4 -10 -3 -5 -2 -10 4 -10 6 0 7 -7 4 -17 -4
-9 -2 -14 3 -10 6 3 16 -3 23 -15 10 -16 10 -19 -1 -12 -7 5 2 -10 19 -33 18
-22 33 -46 33 -53 0 -6 5 -8 10 -5 6 3 10 -1 10 -10 0 -8 8 -19 18 -22 25 -10
42 -29 34 -38 -4 -5 -1 -5 6 -1 7 4 15 1 18 -8 3 -9 10 -13 15 -10 5 3 20 -6
33 -19 16 -16 27 -21 30 -14 2 7 5 4 5 -6 1 -10 6 -15 11 -12 6 3 10 1 10 -6
0 -8 5 -8 16 2 9 7 23 14 32 16 9 1 18 7 20 13 2 5 8 8 13 4 8 -5 13 10 10 29
-1 5 2 6 7 3 5 -3 18 2 28 10 10 9 12 12 4 8 -9 -4 -7 2 5 13 11 11 23 19 28
16 4 -2 7 0 7 5 0 5 14 23 30 41 17 17 28 37 24 43 -4 6 -3 8 4 4 6 -3 13 3
17 14 4 11 11 18 16 14 5 -3 9 -2 8 3 -4 15 13 43 22 37 5 -3 9 0 9 5 0 6 -6
11 -12 12 -7 0 -5 4 5 8 10 4 17 9 15 12 -2 3 9 17 24 31 15 14 25 28 21 31
-3 4 -1 7 5 7 7 0 11 6 9 13 -1 6 4 11 11 9 8 -1 11 2 8 7 -7 10 27 73 38 72
15 -2 16 0 5 20 -7 15 -8 19 0 15 11 -7 53 52 46 65 -3 4 2 9 10 13 8 3 15 12
15 20 0 7 8 17 17 20 15 6 15 8 3 16 -12 8 -12 10 -1 10 8 0 11 6 7 16 -3 8
-2 12 3 9 5 -3 12 4 16 15 4 11 11 17 17 14 7 -4 8 2 3 17 -4 13 -4 21 1 16 4
-4 14 5 21 20 7 16 11 20 8 10 -3 -10 -1 -15 5 -12 6 3 10 11 10 17 0 6 8 17
18 25 9 8 11 11 3 7 -9 -4 -12 -3 -7 4 3 6 15 9 25 7 11 -2 32 10 52 30 19 19
44 35 57 35 13 0 21 4 17 9 -3 5 0 13 6 17 8 4 9 3 5 -4 -4 -7 -2 -12 4 -12 6
0 9 -4 6 -9 -3 -5 2 -15 11 -22 15 -12 16 -12 8 1 -13 21 -15 40 -4 40 5 0 9
-4 9 -10 0 -5 9 -10 20 -10 12 0 20 -7 20 -16 0 -11 5 -14 16 -10 12 4 15 2
10 -9 -3 -8 -1 -15 4 -15 6 0 10 -7 10 -15 0 -8 5 -15 10 -15 6 0 10 -9 10
-20 0 -11 7 -20 16 -20 11 0 14 -6 9 -21 -5 -15 -4 -19 4 -15 6 4 11 2 11 -4
0 -6 5 -8 12 -4 8 5 9 2 5 -10 -5 -14 -3 -16 12 -11 11 3 24 -1 32 -12 12 -16
12 -17 -1 -8 -10 6 -9 4 2 -6 9 -9 14 -20 10 -24 -4 -5 2 -5 12 -1 16 5 17 4
6 -9 -8 -10 -9 -15 -1 -15 6 0 11 -7 11 -15 0 -8 4 -15 9 -15 5 0 12 -7 15
-16 5 -12 2 -15 -11 -10 -12 4 -9 -1 7 -15 14 -11 19 -18 13 -14 -7 3 -13 1
-13 -4 0 -6 5 -11 11 -11 7 0 10 -12 7 -30 -3 -19 0 -31 9 -34 11 -5 11 -10 2
-27 -8 -17 -8 -23 1 -29 7 -5 10 -15 7 -23 -3 -9 -1 -17 4 -19 7 -2 6 -14 -2
-33 -7 -17 -12 -33 -11 -37 1 -5 -6 -8 -16 -9 -10 0 -12 -3 -5 -6 10 -3 9 -10
-2 -27 -8 -12 -12 -26 -8 -29 3 -4 1 -7 -6 -7 -7 0 -9 -4 -6 -10 3 -5 1 -10
-5 -10 -6 0 -8 -4 -5 -10 3 -5 1 -10 -5 -10 -6 0 -8 -4 -5 -10 3 -5 1 -10 -5
-10 -6 0 -8 -5 -5 -10 3 -6 -1 -13 -10 -16 -12 -5 -13 -9 -4 -21 7 -8 8 -13 3
-11 -5 2 -9 -1 -9 -5 0 -5 -8 -13 -19 -19 -15 -8 -16 -12 -5 -19 10 -6 8 -9
-9 -9 -13 0 -20 -4 -17 -10 3 -6 -1 -10 -9 -10 -10 0 -13 -6 -9 -17 4 -11 3
-14 -5 -9 -11 7 -13 3 -16 -31 -2 -18 -38 -53 -48 -47 -4 3 -7 1 -6 -3 4 -12
-63 -79 -74 -76 -4 2 -8 -4 -8 -13 0 -8 -3 -13 -7 -11 -10 5 -43 -30 -35 -37
3 -3 -4 -6 -16 -6 -14 0 -20 -5 -16 -14 3 -8 0 -17 -7 -22 -8 -4 -10 -3 -5 4
4 7 3 12 -3 12 -5 0 -13 -9 -16 -20 -3 -11 -13 -20 -21 -20 -9 0 -12 -5 -8
-12 5 -8 2 -9 -12 -4 -10 4 -15 4 -11 0 8 -9 -43 -54 -62 -54 -8 0 -12 -3 -9
-6 7 -6 -27 -44 -38 -44 -4 0 -13 -8 -21 -17 -9 -12 -12 -12 -8 -3 4 8 -7 -1
-24 -20 -17 -19 -31 -31 -31 -26 0 6 -7 1 -16 -10 -8 -10 -12 -13 -8 -5 5 10
3 12 -5 7 -7 -5 -10 -14 -7 -21 3 -9 -2 -12 -14 -10 -13 3 -17 -1 -13 -11 3
-8 -1 -14 -11 -14 -9 0 -16 -3 -16 -7 0 -5 -17 -19 -38 -33 -50 -34 -62 -46
-54 -55 4 -5 -1 -6 -10 -2 -10 3 -19 0 -22 -10 -4 -8 -13 -13 -21 -10 -9 4
-12 1 -9 -7 3 -8 -4 -16 -16 -19 -12 -3 -19 -10 -15 -16 3 -6 -1 -11 -9 -11
-8 0 -26 -12 -39 -26 -13 -14 -32 -27 -43 -28 -11 -2 -18 -10 -16 -20 2 -9 -4
-16 -13 -16 -8 0 -15 -5 -15 -11 0 -5 -4 -7 -10 -4 -5 3 -10 -1 -10 -9 0 -9
-5 -16 -11 -16 -5 0 -7 6 -3 13 4 7 3 9 -2 4 -5 -5 -10 -13 -10 -18 -1 -5 -2
-13 -3 -19 0 -5 -4 -9 -8 -9 -18 3 -34 -2 -30 -8 6 -10 -19 -34 -27 -26 -3 4
-6 1 -6 -6 0 -7 -4 -9 -10 -6 -5 3 -10 1 -10 -5 0 -19 -49 -62 -63 -54 -8 5
-7 2 2 -9 12 -15 12 -17 -4 -11 -13 5 -16 4 -11 -4 7 -11 -6 -17 -27 -13 -5 1
-6 -3 -2 -9 3 -5 1 -10 -5 -10 -6 0 -8 -5 -4 -12 5 -8 2 -9 -9 -5 -10 4 -16 2
-14 -6 1 -7 -4 -11 -12 -9 -12 3 -12 1 0 -14 9 -12 10 -15 1 -10 -7 4 -19 0
-28 -8 -8 -9 -12 -16 -7 -17 4 0 0 -4 -10 -8 -10 -4 -18 -11 -17 -15 1 -5 -13
-17 -30 -28 -18 -10 -34 -28 -37 -39 -3 -10 -12 -19 -20 -19 -8 0 -11 -4 -8
-10 3 -5 1 -10 -5 -10 -6 0 -9 -4 -5 -9 3 -5 0 -13 -6 -17 -8 -4 -9 -3 -5 4 4
7 2 12 -3 12 -6 0 -11 -7 -11 -15 0 -8 -5 -15 -11 -15 -5 0 -8 -3 -6 -7 5 -10
-30 -43 -37 -35 -3 3 -6 -2 -6 -11 0 -9 -9 -26 -20 -37 -11 -11 -20 -18 -20
-15 0 3 -6 0 -14 -7 -8 -7 -13 -15 -11 -18 4 -7 -22 -30 -29 -24 -3 2 -4 1 -1
-2 7 -11 -15 -45 -26 -39 -5 4 -9 3 -8 -2 4 -22 -2 -43 -11 -38 -5 3 -10 -3
-10 -14 0 -12 -7 -21 -15 -21 -8 0 -15 -3 -14 -7 3 -19 -14 -52 -23 -46 -6 3
-9 0 -6 -8 2 -7 -3 -20 -12 -29 -9 -8 -10 -11 -3 -6 10 6 12 4 7 -8 -5 -14
-16 -20 -35 -18 -3 1 -6 -5 -6 -13 0 -8 4 -12 9 -9 5 4 4 -3 -3 -14 -7 -12
-17 -18 -23 -15 -5 4 -7 -1 -3 -10 3 -10 2 -17 -3 -17 -5 0 -6 -7 -3 -17 4
-11 3 -14 -5 -9 -11 6 -14 0 -11 -21 0 -3 -6 -10 -14 -14 -8 -5 -14 -19 -13
-31 1 -13 -7 -29 -17 -37 -15 -11 -16 -15 -6 -22 11 -7 9 -9 -6 -10 -12 0 -15
-3 -7 -6 10 -4 9 -10 -5 -26 -10 -11 -12 -17 -6 -13 9 5 11 2 7 -8 -3 -9 -11
-13 -18 -9 -6 4 -4 -2 4 -12 14 -17 13 -18 -3 -12 -10 4 -16 3 -12 -2 3 -5 1
-13 -5 -16 -8 -5 -7 -12 2 -23 11 -13 11 -14 -1 -7 -11 6 -13 4 -8 -9 5 -13 3
-17 -7 -13 -10 4 -13 1 -9 -8 3 -8 10 -12 17 -8 6 3 2 -3 -8 -15 -11 -12 -16
-25 -13 -29 4 -3 -1 -12 -11 -20 -16 -14 -16 -14 2 -8 20 6 20 6 0 -16 -11
-14 -13 -19 -4 -14 13 8 13 6 2 -8 -8 -9 -11 -21 -7 -27 3 -5 1 -10 -5 -10 -7
0 -7 -7 1 -22 11 -20 10 -21 -3 -11 -12 11 -14 8 -13 -22 0 -19 -4 -35 -10
-35 -5 0 -3 -5 5 -10 12 -8 12 -10 -5 -10 -16 0 -17 -2 -6 -9 13 -8 13 -12 0
-27 -9 -11 -9 -15 -2 -10 15 8 17 -3 3 -24 -5 -9 -5 -19 1 -26 7 -8 6 -15 -2
-19 -8 -6 -7 -10 2 -16 11 -7 11 -9 1 -9 -17 0 -16 -228 2 -249 8 -12 8 -13
-1 -7 -8 4 -13 1 -13 -9 0 -9 4 -14 8 -11 5 3 9 -1 9 -9 0 -8 -3 -12 -7 -10
-4 2 -7 -2 -7 -10 0 -8 5 -11 10 -8 6 4 8 0 4 -10 -3 -10 -2 -17 4 -17 6 0 7
-5 4 -10 -4 -6 -10 -8 -14 -6 -4 3 -8 -1 -8 -9 0 -8 4 -12 8 -10 4 3 9 -11 11
-29 2 -22 0 -32 -7 -28 -5 3 -4 -2 4 -11 7 -9 10 -17 5 -17 -5 0 -2 -5 6 -10
8 -5 15 -18 15 -28 0 -10 6 -26 13 -35 10 -12 10 -17 1 -23 -7 -4 -9 -3 -5 4
3 6 2 13 -3 16 -13 8 -8 -19 7 -36 6 -8 9 -18 5 -21 -3 -4 0 -7 8 -7 11 0 11
-2 -1 -10 -13 -8 -13 -10 2 -10 11 0 15 -6 11 -20 -3 -11 -1 -20 4 -20 5 0 9
-10 10 -22 1 -11 7 -24 14 -28 8 -6 8 -9 -2 -13 -10 -4 -10 -6 -1 -6 6 -1 12
-8 12 -16 0 -8 5 -15 11 -15 5 0 8 -4 4 -9 -3 -5 2 -17 11 -25 11 -12 12 -16
2 -16 -8 -1 -4 -8 9 -19 12 -10 19 -21 16 -25 -4 -3 -1 -6 5 -6 7 0 11 -3 11
-7 -3 -21 2 -33 16 -33 8 0 15 -9 15 -21 0 -11 5 -17 10 -14 6 3 10 1 10 -5 0
-15 46 -60 54 -53 3 4 6 -2 6 -12 0 -10 3 -16 6 -12 4 3 12 1 20 -6 34 -30 42
-35 60 -34 11 1 18 -4 17 -11 -4 -15 13 -16 23 -1 4 8 9 7 15 -2 7 -11 9 -10
9 4 0 10 5 15 10 12 6 -3 10 -1 10 5 0 6 5 8 10 5 6 -3 10 -1 10 5 0 6 5 8 10
5 6 -4 9 -2 8 3 -2 6 1 9 5 9 5 -1 13 6 18 16 6 9 14 15 20 12 5 -4 9 1 9 10
0 11 5 15 16 11 8 -3 12 -2 9 4 -3 6 1 13 9 16 9 3 13 11 9 18 -4 6 1 5 11 -3
9 -8 16 -10 14 -5 -3 10 38 55 45 48 3 -3 7 6 11 20 5 19 11 24 27 21 16 -3
19 0 15 12 -4 10 -2 14 8 10 8 -3 22 1 33 9 10 9 12 12 4 8 -9 -4 -12 -3 -7 4
4 6 14 8 23 5 12 -5 14 -3 8 8 -7 11 -5 11 10 -1 10 -8 16 -10 13 -5 -3 6 0
16 8 23 11 10 14 10 14 0 0 -9 3 -9 9 2 6 8 7 19 3 25 -3 5 7 2 22 -9 16 -10
26 -14 22 -8 -3 5 5 10 19 10 16 0 22 -5 18 -12 -4 -6 1 -5 10 3 14 11 20 11
32 1 13 -11 14 -10 9 5 -6 14 -4 16 7 9 8 -5 21 -9 29 -9 8 0 21 -4 29 -9 10
-7 12 -5 6 5 -6 11 -5 12 6 2 7 -7 20 -13 28 -13 9 0 27 -10 41 -21 14 -11 18
-17 10 -13 -9 4 -12 3 -7 -2 5 -5 16 -9 25 -9 9 0 17 -7 16 -15 -1 -9 8 -17
20 -18 11 0 22 -6 24 -12 2 -5 10 -10 18 -10 9 0 12 -4 9 -10 -3 -5 -1 -10 5
-10 6 0 8 -5 5 -10 -3 -6 1 -13 9 -16 9 -3 16 -10 16 -16 0 -5 -5 -6 -11 -2
-6 3 -3 -6 7 -22 14 -22 15 -27 3 -19 -8 6 -6 2 4 -7 13 -13 15 -18 6 -18 -9
0 -10 -3 -4 -8 14 -10 19 -38 19 -114 0 -38 5 -68 10 -68 5 0 1 -10 -10 -22
-10 -12 -14 -18 -7 -14 15 8 34 -26 24 -43 -10 -16 -2 -61 11 -61 6 0 5 -7 -2
-15 -10 -12 -10 -15 0 -15 7 0 10 -7 6 -15 -3 -8 -2 -15 2 -15 5 0 7 -13 6
-30 -1 -17 3 -30 10 -30 7 0 11 -14 10 -35 -1 -19 3 -35 8 -35 7 0 6 -5 -1
-14 -9 -11 -8 -18 4 -30 12 -12 13 -16 3 -16 -10 0 -10 -2 1 -9 8 -5 12 -18 8
-30 -3 -12 -1 -19 4 -15 9 5 11 -3 12 -43 0 -12 4 -20 8 -17 5 3 12 -3 16 -13
4 -10 14 -24 22 -31 9 -8 11 -11 4 -8 -8 5 -8 0 0 -18 7 -13 15 -22 19 -20 4
3 13 -6 19 -20 7 -14 20 -28 31 -32 10 -3 16 -9 14 -12 -2 -4 2 -16 10 -27 10
-13 14 -15 14 -4 1 8 7 3 15 -11 13 -22 20 -20 16 4 -1 5 4 4 12 -2 8 -7 17
-9 20 -5 4 3 7 0 7 -7 0 -7 3 -10 7 -7 3 4 13 1 21 -6 13 -9 14 -9 8 1 -4 7
-1 12 9 12 10 0 13 -5 9 -12 -4 -7 -4 -10 1 -6 4 4 14 3 22 -4 11 -9 12 -7 7
8 -7 18 -7 18 13 1 11 -9 23 -14 26 -10 4 3 7 0 7 -8 0 -11 2 -11 10 1 7 11
10 11 10 2 0 -9 5 -10 18 -4 9 5 23 7 30 5 6 -3 12 1 12 7 0 9 5 9 17 -1 11
-10 14 -10 9 -2 -5 9 1 13 21 14 15 1 32 1 36 0 4 -1 17 4 28 10 15 8 24 7 37
-3 9 -7 13 -8 10 -3 -3 6 0 15 7 22 11 10 15 10 19 0 3 -8 7 -8 13 -2 12 15
33 17 33 2 0 -9 2 -9 9 1 4 7 19 14 32 14 13 1 31 8 41 15 11 10 18 11 23 4 3
-6 11 -11 16 -11 6 0 7 6 3 13 -5 8 -2 8 9 -2 12 -9 17 -10 17 -2 0 7 5 9 10
6 6 -3 10 0 10 7 0 9 3 9 10 -2 8 -12 10 -12 10 -1 0 9 7 11 21 8 14 -4 19 -2
16 7 -3 7 1 13 9 13 7 0 11 -4 8 -9 -3 -4 -1 -8 5 -8 5 0 17 -3 27 -7 12 -4
15 -3 10 5 -5 8 -2 10 8 6 9 -3 13 -11 9 -18 -4 -6 2 -4 13 4 10 8 16 11 12 6
-7 -8 18 -40 34 -42 4 -1 11 -2 16 -3 4 -1 -2 -8 -12 -16 -16 -12 -17 -15 -4
-15 12 0 15 -6 11 -22 -4 -19 -3 -20 6 -8 7 9 11 10 11 3 0 -6 -5 -15 -11 -19
-8 -5 -6 -10 5 -16 14 -8 15 -13 5 -24 -6 -8 -8 -14 -4 -14 4 0 2 -7 -5 -15
-10 -12 -10 -15 1 -15 8 -1 3 -7 -11 -15 -16 -9 -19 -14 -10 -15 12 0 15 -8
12 -35 -2 -19 -8 -35 -14 -35 -5 0 -8 -10 -6 -23 2 -12 -2 -21 -8 -20 -7 1 -9
-8 -6 -24 4 -20 2 -24 -9 -18 -12 8 -12 6 0 -8 7 -9 9 -17 4 -17 -5 0 -10 -7
-11 -15 -1 -8 -3 -22 -4 -30 -1 -8 -6 -15 -12 -15 -6 0 -4 -5 4 -10 12 -8 12
-10 1 -10 -11 0 -11 -3 0 -17 8 -10 9 -14 2 -10 -6 4 -14 3 -18 -3 -3 -5 -1
-10 5 -10 6 0 8 -5 5 -10 -4 -6 -12 -7 -18 -3 -7 4 -6 0 2 -10 7 -9 9 -17 4
-17 -12 0 -11 -30 2 -49 5 -10 4 -12 -3 -7 -7 4 -12 2 -12 -4 0 -6 -4 -9 -9
-6 -10 7 -9 -20 2 -30 13 -13 7 -26 -9 -20 -13 5 -14 3 -6 -7 6 -7 8 -26 6
-42 -3 -17 -6 -60 -7 -97 -1 -36 -5 -64 -9 -61 -11 6 -10 -5 3 -29 8 -15 8
-19 0 -14 -14 9 -14 0 -1 -24 9 -16 8 -18 -6 -13 -14 5 -14 2 2 -23 11 -15 14
-25 7 -21 -12 8 -10 -53 3 -74 4 -8 3 -9 -4 -5 -15 9 -15 1 0 -27 10 -21 10
-21 -7 -7 -17 14 -17 14 -1 -19 10 -18 13 -30 8 -27 -6 3 -13 -1 -16 -10 -3
-8 -2 -13 3 -10 5 3 9 -19 9 -49 0 -38 -4 -53 -12 -48 -6 4 -5 -1 3 -10 7 -9
11 -17 9 -17 -3 0 -2 -18 2 -40 4 -22 3 -37 -1 -34 -5 3 -9 0 -9 -5 0 -6 8
-11 18 -12 14 0 14 -2 -3 -9 -13 -6 -15 -9 -5 -9 13 -1 13 -3 1 -10 -11 -7
-10 -10 5 -14 17 -4 17 -5 1 -6 -10 0 -15 -6 -12 -11 4 -6 1 -18 -7 -27 -8
-11 -9 -14 -1 -10 16 10 14 -95 -1 -105 -8 -5 -7 -8 0 -8 7 0 12 -17 13 -37 1
-47 5 -71 14 -79 3 -4 2 -15 -4 -25 -6 -12 -6 -19 0 -19 5 0 9 -12 7 -28 -1
-15 6 -43 16 -62 13 -25 15 -36 6 -41 -9 -6 -8 -10 5 -15 9 -3 17 -16 17 -29
0 -13 7 -25 15 -29 8 -3 15 -10 15 -16 0 -6 -4 -9 -9 -6 -5 4 -4 -5 2 -19 7
-14 16 -25 20 -25 5 0 5 -4 2 -10 -3 -5 0 -10 7 -10 9 0 9 -3 -2 -10 -10 -6
-11 -10 -2 -10 6 0 12 -6 12 -13 0 -7 16 -30 35 -51 19 -21 37 -46 40 -57 4
-10 10 -19 14 -19 4 0 13 -16 21 -35 8 -19 18 -35 23 -35 5 0 6 -7 3 -16 -3
-8 -2 -13 2 -11 4 3 13 -1 19 -8 10 -11 9 -15 -5 -18 -16 -4 -16 -5 1 -6 9 0
18 -9 19 -18 0 -10 2 -23 2 -30 1 -6 14 -25 29 -42 29 -33 34 -46 15 -36 -7 4
-3 -2 9 -13 12 -11 25 -31 29 -46 3 -15 16 -33 27 -41 12 -8 16 -15 9 -15 -10
0 -10 -4 2 -15 8 -8 19 -15 25 -15 6 0 11 -5 11 -11 0 -5 -4 -7 -10 -4 -6 3
-7 -1 -4 -9 3 -9 10 -13 15 -10 5 3 9 -5 9 -16 0 -15 5 -20 14 -17 10 4 13 1
10 -7 -3 -8 0 -17 5 -21 6 -3 8 -12 4 -18 -4 -7 0 -7 10 1 14 12 16 11 12 -7
-2 -14 1 -21 11 -21 12 0 19 -18 15 -42 0 -4 8 -10 19 -13 11 -4 20 -12 20
-18 0 -7 8 -20 18 -29 9 -9 30 -32 46 -51 17 -20 34 -33 39 -30 6 3 7 1 3 -5
-4 -6 1 -20 11 -31 36 -40 48 -56 46 -63 -2 -4 5 -4 14 -1 11 4 14 3 9 -5 -4
-7 -2 -12 3 -12 6 0 11 -8 11 -17 0 -15 2 -16 10 -3 7 11 10 12 10 2 0 -8 15
-28 33 -45 17 -16 31 -34 30 -38 -2 -5 5 -5 15 -2 9 3 14 3 11 -1 -9 -9 92
-117 103 -110 4 3 8 -2 8 -11 0 -9 5 -13 10 -10 6 3 10 -1 10 -10 0 -11 5 -15
15 -11 8 3 14 0 12 -7 -1 -6 8 -13 21 -15 14 -2 22 -9 19 -17 -4 -9 1 -11 16
-8 18 4 19 3 7 -6 -12 -9 -10 -11 13 -11 20 0 26 -4 21 -12 -5 -8 -2 -8 10 1
9 8 16 10 15 5 -5 -29 1 -35 24 -23 21 12 21 11 7 -7 -8 -10 -10 -16 -5 -11 4
4 19 -3 33 -15 13 -13 25 -22 28 -20 12 7 34 1 29 -8 -4 -6 -3 -10 2 -9 22 4
34 -2 27 -13 -5 -9 -2 -9 9 1 16 12 22 8 18 -12 -1 -5 3 -5 9 -2 6 4 18 -1 26
-11 14 -18 14 -18 8 0 -6 16 -4 17 14 7 11 -6 24 -15 27 -21 3 -5 12 -7 20 -3
9 3 15 -1 15 -8 0 -12 2 -12 9 0 7 10 11 9 23 -7 11 -17 23 -20 61 -18 25 1
48 -2 49 -6 2 -5 16 -4 31 1 18 7 26 7 22 1 -3 -6 3 -10 15 -10 12 0 18 4 15
10 -3 6 1 7 9 4 9 -3 13 -11 9 -17 -3 -6 -1 -7 6 -3 9 6 9 11 0 22 -11 13 -6
18 14 15 4 -1 3 8 -3 19 -10 18 -7 24 11 22 3 -1 6 5 6 13 0 8 -4 12 -9 9 -4
-3 -5 2 -2 10 3 9 11 13 16 10 7 -5 7 -1 0 11 -7 14 -6 22 4 33 11 10 12 18 4
27 -8 10 -7 14 2 17 10 4 10 8 -1 21 -11 14 -11 18 2 23 9 3 13 12 10 20 -3 8
1 22 8 31 12 14 12 16 -1 8 -12 -6 -13 -5 -3 6 7 7 13 23 13 36 0 13 5 23 11
23 5 0 7 5 4 10 -3 6 1 13 9 16 9 3 13 11 10 16 -4 6 -10 5 -15 -3 -5 -8 -9
-9 -9 -3 0 6 7 17 15 24 8 7 12 16 9 21 -3 5 0 9 6 9 7 0 10 7 6 15 -3 8 0 15
5 15 6 0 9 9 6 19 -3 14 -1 18 9 14 9 -3 14 2 14 16 0 12 5 21 10 21 6 0 10 5
10 11 0 5 -4 7 -10 4 -6 -3 -7 1 -4 9 3 9 10 13 15 10 5 -3 10 0 10 5 1 6 3
16 4 21 1 6 3 15 4 21 0 5 6 7 13 3 8 -5 9 -2 5 9 -3 10 -2 17 4 17 6 0 7 5 4
10 -3 6 1 13 9 16 8 3 18 16 22 27 4 12 16 30 27 40 11 9 15 17 8 17 -9 0 -8
4 1 14 7 8 16 12 20 10 4 -3 5 5 3 16 -2 11 0 18 6 15 8 -6 13 8 10 27 0 4 7
4 16 1 11 -4 14 -3 9 5 -4 7 -2 12 5 12 7 0 9 3 6 7 -4 3 4 16 16 27 13 12 21
28 19 35 -3 8 0 11 7 7 6 -4 11 -2 11 4 0 6 4 8 10 5 6 -4 7 1 3 11 -4 12 -3
15 6 10 7 -5 15 3 22 23 6 17 14 30 17 28 4 -2 21 10 37 26 17 16 24 26 16 22
-9 -5 -12 -4 -7 3 4 7 14 12 22 12 8 0 14 5 14 11 0 5 5 7 12 3 7 -4 8 -3 4 4
-4 7 3 16 18 23 15 7 22 17 19 26 -3 8 0 13 8 11 8 -2 13 4 13 14 -1 10 2 15
7 13 10 -7 55 36 51 48 -1 5 2 6 7 3 5 -4 16 1 24 9 9 8 22 15 29 15 10 0 9 3
-2 10 -12 8 -11 10 7 10 12 0 28 9 36 20 8 11 17 17 20 13 4 -3 7 2 7 11 0 12
5 16 15 12 9 -3 19 3 25 15 6 11 15 17 21 14 5 -4 9 -2 9 3 0 14 39 22 47 10
4 -7 1 -8 -8 -3 -8 5 -10 4 -6 0 10 -11 39 -16 32 -5 -3 4 2 10 10 13 10 4 12
1 8 -10 -5 -12 -2 -15 10 -10 10 4 20 0 26 -11 9 -15 10 -15 11 3 1 11 4 14 7
7 2 -6 8 -10 12 -8 4 3 20 -6 37 -20 21 -17 23 -22 9 -17 l-20 6 20 -23 c12
-14 14 -20 5 -15 -12 6 -13 5 -2 -6 16 -17 16 -32 0 -23 -7 4 -2 -6 12 -22 14
-15 17 -23 8 -15 -15 11 -16 9 -7 -23 6 -20 7 -41 4 -46 -3 -6 2 -10 12 -11
10 0 13 -3 6 -6 -10 -3 -10 -10 -2 -24 5 -11 7 -24 4 -29 -3 -6 0 -10 7 -10
11 0 10 -2 0 -9 -11 -7 -10 -9 3 -15 9 -3 13 -10 10 -16 -3 -5 -1 -10 4 -10 6
0 11 -5 11 -11 0 -5 -5 -7 -11 -3 -8 5 -8 1 0 -13 6 -11 7 -23 3 -27 -3 -4 2
-4 12 0 13 5 17 4 13 -3 -4 -6 -1 -18 7 -26 11 -11 12 -17 3 -26 -8 -8 -7 -11
6 -11 9 0 17 -3 16 -7 -2 -16 14 -53 22 -53 5 0 9 -9 9 -21 0 -11 5 -17 10
-14 6 4 10 -6 10 -22 0 -22 2 -25 10 -13 8 13 10 12 10 -2 0 -10 4 -18 10 -18
5 0 9 -3 9 -7 -3 -20 2 -34 11 -28 5 3 10 0 10 -8 0 -8 7 -18 16 -21 8 -3 12
-10 9 -16 -3 -5 1 -10 9 -10 9 0 15 -3 15 -7 -3 -19 2 -33 12 -33 5 0 7 5 3
12 -5 7 -3 8 5 4 7 -5 10 -15 7 -23 -4 -11 -2 -13 9 -9 10 4 15 -1 15 -15 0
-11 3 -18 8 -16 9 6 52 -39 45 -47 -4 -3 -1 -6 6 -6 16 0 41 -25 41 -40 0 -6
3 -9 8 -7 10 6 52 -39 44 -48 -3 -3 1 -3 11 1 11 4 19 0 23 -10 3 -9 12 -16
18 -16 7 0 23 -11 36 -25 12 -13 26 -22 31 -20 4 3 10 -4 14 -15 3 -11 11 -20
16 -20 6 0 7 -5 3 -12 -4 -6 -3 -8 4 -4 6 3 15 -2 21 -11 6 -10 11 -12 11 -5
0 6 5 12 11 12 5 0 7 -4 4 -10 -3 -5 -1 -10 5 -10 6 0 9 -4 5 -9 -3 -6 4 -8
15 -6 13 3 20 -1 20 -12 0 -10 6 -14 20 -10 13 3 20 0 20 -9 0 -8 5 -14 11
-14 5 0 7 6 3 13 -5 8 -3 8 9 -2 9 -7 14 -18 10 -25 -4 -6 1 -5 10 3 15 12 17
11 17 -2 0 -10 6 -14 15 -11 8 4 15 1 15 -5 0 -6 6 -8 13 -5 7 2 24 -4 37 -16
25 -21 35 -26 25 -11 -3 5 0 13 6 17 7 4 9 3 6 -3 -4 -6 0 -16 8 -23 9 -8 15
-8 15 -2 0 7 10 7 29 -1 17 -6 27 -15 24 -21 -4 -5 -1 -6 8 -1 19 12 49 14 55
3 3 -4 10 -8 15 -8 6 0 7 4 4 10 -4 7 3 7 19 0 23 -8 26 -7 26 12 0 21 0 21
16 2 8 -10 13 -13 9 -6 -3 6 -1 12 4 12 6 0 11 -4 11 -8 0 -5 6 -9 14 -9 8 0
12 6 9 14 -3 7 0 14 6 14 6 1 17 2 24 3 6 1 10 8 8 16 -2 8 -3 25 -2 38 0 16
-3 21 -12 16 -9 -5 -9 -4 1 7 14 15 17 33 4 25 -5 -3 -9 1 -9 9 0 8 4 12 9 9
4 -3 8 0 8 5 0 6 -4 11 -9 11 -5 0 -12 7 -15 16 -3 8 -2 13 3 10 5 -4 7 3 4
14 -3 11 -8 20 -12 20 -6 0 -8 8 -14 63 -1 10 -9 22 -17 27 -13 9 -13 10 0 10
12 1 11 3 -3 14 -12 9 -14 16 -8 21 6 3 11 11 11 16 0 6 -4 8 -10 4 -5 -3 -9
5 -8 17 2 40 -2 49 -14 42 -7 -5 -8 -3 -2 7 13 21 14 39 2 39 -6 0 -5 6 2 15
10 12 9 20 -4 40 -15 23 -15 25 1 25 15 0 15 2 -3 15 -14 11 -15 14 -4 15 13
0 13 1 0 10 -11 7 -11 10 -2 10 9 0 10 5 3 18 -6 11 -6 24 0 34 6 10 5 26 0
42 -8 20 -7 26 7 29 16 4 16 5 0 6 -10 0 -18 6 -18 12 0 6 7 8 16 5 13 -5 14
-3 7 6 -14 19 -14 60 0 51 7 -4 5 2 -3 12 -9 11 -10 16 -3 11 16 -9 17 6 2 21
-7 7 -6 15 5 26 11 10 13 18 5 22 -6 5 -4 12 8 21 10 7 13 14 7 14 -16 0 -12
54 6 75 8 10 14 20 13 21 -3 4 -2 8 16 63 8 26 8 37 0 42 -8 5 -8 8 1 14 6 4
9 13 6 20 -3 8 1 18 8 24 8 7 16 25 20 42 4 21 10 28 18 23 10 -6 10 -4 0 8
-10 13 -10 18 -1 24 8 5 9 3 4 -6 -6 -9 -4 -11 4 -5 9 5 9 11 3 17 -12 12 -4
40 9 32 5 -3 9 3 9 13 0 10 8 29 17 42 12 18 13 22 2 16 -11 -7 -12 -6 -2 7 7
8 9 19 5 23 -4 5 2 5 12 1 15 -5 17 -4 7 8 -8 10 -9 16 -1 21 5 3 10 15 10 26
0 11 5 17 10 14 6 -4 10 5 10 19 0 14 6 26 13 26 8 0 7 4 -3 10 -13 8 -13 10
2 10 11 0 15 5 12 14 -3 8 0 17 7 22 8 5 10 3 4 -6 -6 -9 -4 -11 4 -5 9 5 10
10 2 18 -7 7 -5 15 7 24 12 10 12 12 2 8 -8 -4 -6 1 5 10 11 9 19 23 17 31 -2
8 1 14 7 14 5 0 12 14 16 30 4 18 11 27 17 24 6 -4 8 -2 5 4 -10 15 3 43 16
35 6 -4 8 2 4 16 -3 13 -3 20 0 17 10 -10 32 15 26 30 -3 8 0 14 7 14 6 0 8 5
5 10 -3 6 -1 10 5 10 6 0 9 4 6 9 -7 10 18 33 27 25 3 -3 3 3 0 15 -4 15 -1
21 12 21 13 0 15 3 7 13 -9 10 -6 17 8 29 10 9 21 14 23 11 3 -3 4 3 3 14 -4
23 15 54 28 46 5 -4 7 3 3 16 -4 18 -3 20 9 10 12 -10 13 -9 8 6 -5 13 -4 16
4 11 8 -4 10 -2 6 7 -5 14 49 77 67 77 5 0 19 -15 30 -32 12 -18 19 -26 16
-17 -3 9 1 16 8 16 7 0 11 -6 8 -14 -3 -8 8 -19 28 -28 19 -8 30 -14 26 -15
-4 0 -2 -6 5 -14 9 -10 15 -11 20 -2 5 7 8 4 8 -8 0 -11 3 -17 6 -13 4 3 13
-1 21 -9 8 -8 19 -12 24 -9 5 4 9 2 9 -4 0 -5 24 -17 53 -26 28 -10 58 -24 65
-33 10 -13 12 -13 12 -1 0 12 2 12 9 0 5 -7 13 -11 19 -7 6 3 14 1 18 -5 5 -8
3 -9 -6 -4 -9 5 -11 4 -6 -4 6 -9 11 -9 21 -1 10 8 15 8 20 0 4 -6 14 -9 22
-5 13 4 14 3 4 -9 -10 -12 -9 -14 3 -12 9 1 18 5 22 8 9 10 35 -3 28 -14 -4
-6 2 -8 15 -3 12 4 21 2 21 -4 0 -6 7 -11 16 -11 9 0 12 5 8 13 -5 8 -3 8 9
-2 9 -7 28 -11 43 -8 14 2 31 -2 40 -10 9 -10 14 -11 14 -2 0 8 4 9 13 0 10
-8 17 -7 25 1 9 9 12 9 12 -1 0 -10 3 -11 14 -2 11 9 16 9 21 0 6 -8 10 -7 16
2 7 11 9 9 9 -6 0 -15 3 -17 9 -7 11 18 12 18 38 3 20 -10 22 -9 16 6 -6 16
-5 16 10 4 13 -10 17 -10 17 -1 0 10 3 10 15 0 13 -11 18 -8 17 10 0 3 8 6 18
6 11 0 16 -5 12 -11 -4 -6 1 -2 11 8 14 16 17 17 17 3 0 -9 5 -16 11 -16 5 0
7 4 4 10 -4 6 5 10 20 10 15 0 35 5 45 10 13 7 21 7 25 -1 5 -7 18 0 37 18 21
19 32 24 35 15 4 -10 8 -10 19 -1 8 6 14 8 14 3 0 -5 4 -3 9 4 4 7 18 14 29
15 12 1 22 4 22 8 0 4 9 5 20 2 14 -4 20 0 20 11 0 10 6 13 15 10 8 -4 15 -1
15 6 0 10 3 10 15 0 13 -11 14 -10 10 3 -5 10 -1 15 12 14 10 -1 17 3 16 9 -1
6 4 11 12 11 8 0 12 -5 9 -11 -3 -6 1 -3 9 6 8 10 17 15 20 11 4 -3 9 2 13 11
3 9 11 13 17 9 5 -3 15 0 21 8 17 21 55 41 66 34 6 -4 10 1 10 10 0 9 5 13 10
10 6 -3 10 -2 10 4 0 6 8 7 18 4 15 -6 15 -5 3 10 -12 15 -12 17 3 11 9 -3 16
-1 16 5 0 6 6 10 13 8 6 -1 11 4 9 12 -3 12 -1 12 14 0 10 -8 15 -9 12 -4 -3
6 0 16 8 23 8 7 14 9 14 5 0 -4 5 0 11 10 6 9 14 15 20 12 5 -4 9 1 9 9 0 10
6 13 15 9 10 -3 15 0 13 8 -2 8 3 13 10 12 6 -2 12 5 12 15 0 13 2 14 9 3 7
-11 10 -9 16 8 3 12 11 18 17 15 8 -5 9 -1 4 11 -6 16 -4 16 11 4 15 -12 16
-12 10 4 -4 11 -3 16 3 12 6 -3 10 -1 10 4 0 6 6 10 13 8 6 -1 11 4 10 11 -3
13 -2 13 34 17 18 2 21 -1 13 -16 -7 -12 -6 -19 3 -22 6 -3 7 -6 1 -6 -14 -1
-5 -61 10 -61 6 0 4 -5 -4 -10 -10 -6 -11 -10 -2 -10 6 0 12 -11 12 -25 0 -13
8 -29 18 -35 16 -11 16 -11 -2 -6 -16 6 -17 4 -6 -9 7 -8 9 -15 5 -15 -5 0 0
-10 11 -22 10 -12 13 -18 7 -14 -7 4 -13 2 -13 -3 0 -6 5 -11 11 -11 5 0 8 -4
5 -9 -3 -4 1 -17 8 -27 10 -13 11 -23 4 -31 -7 -9 -7 -13 2 -13 7 0 10 -8 7
-20 -4 -14 0 -20 11 -20 15 0 15 -2 2 -10 -12 -8 -12 -10 -1 -10 9 0 12 -8 9
-25 -3 -13 -2 -22 3 -20 4 3 10 1 14 -5 3 -5 0 -10 -7 -10 -9 0 -9 -3 2 -10
13 -9 13 -10 0 -10 -12 -1 -11 -3 3 -11 13 -8 15 -14 7 -30 -9 -15 -7 -19 7
-19 15 0 15 -1 -2 -13 -14 -11 -15 -16 -5 -22 9 -6 11 -4 5 5 -5 8 -4 11 2 7
5 -3 9 -25 8 -49 0 -24 4 -46 10 -50 6 -5 5 -8 -4 -8 -11 0 -11 -3 -1 -15 9
-11 9 -15 1 -15 -7 0 -9 -5 -6 -10 4 -6 10 -8 15 -5 10 6 8 -15 -3 -32 -5 -8
-4 -13 2 -13 6 0 11 -5 11 -11 0 -5 -4 -8 -8 -5 -5 3 -9 -1 -9 -9 0 -8 7 -15
16 -16 12 0 11 -2 -3 -8 -17 -7 -18 -8 -3 -14 10 -4 14 -12 11 -22 -3 -8 -11
-12 -18 -8 -6 4 -5 -1 3 -10 14 -17 22 -89 10 -81 -4 2 -10 -3 -13 -12 -9 -23
-7 -31 3 -16 6 10 10 9 14 -7 3 -12 2 -19 -3 -16 -10 6 -21 -21 -12 -30 10
-10 9 -29 -3 -37 -6 -5 -4 -8 4 -8 11 0 10 -4 -5 -16 -10 -8 -14 -13 -8 -10 7
3 14 -3 17 -15 3 -12 0 -22 -9 -26 -8 -3 -14 -9 -14 -15 0 -5 4 -7 9 -4 5 3 8
-5 7 -19 0 -14 -7 -25 -15 -25 -11 0 -9 -4 5 -16 10 -8 14 -13 7 -10 -8 5 -10
-8 -6 -45 5 -42 3 -50 -8 -43 -11 6 -12 5 -2 -7 10 -12 10 -18 0 -29 -10 -10
-9 -11 3 -5 11 6 10 3 -3 -12 -9 -11 -14 -23 -10 -27 10 -10 11 -46 1 -46 -5
0 -6 -4 -3 -10 3 -5 1 -18 -5 -29 -6 -12 -6 -22 -1 -26 13 -7 10 -45 -4 -45
-5 0 -3 -5 5 -10 13 -9 13 -11 0 -21 -11 -8 -12 -12 -3 -16 10 -3 9 -8 -3 -20
-13 -14 -13 -17 2 -35 17 -18 17 -19 -1 -12 -13 5 -16 4 -11 -5 4 -6 2 -19 -6
-28 -9 -12 -9 -15 0 -9 8 5 12 0 12 -13 0 -12 -5 -21 -10 -21 -7 0 -7 -6 0
-19 7 -14 7 -22 -1 -27 -8 -4 -7 -9 2 -15 11 -6 10 -9 -4 -15 -9 -3 -14 -10
-11 -15 3 -5 11 -7 17 -3 7 3 4 -1 -6 -9 -18 -15 -18 -16 0 -26 17 -10 17 -10
1 -11 -20 0 -23 -11 -7 -27 8 -8 7 -13 -2 -18 -8 -6 -10 -4 -4 5 6 9 4 11 -4
6 -9 -6 -9 -12 2 -24 14 -17 12 -47 -2 -38 -4 3 -8 -1 -8 -9 0 -8 4 -12 9 -9
4 3 5 -2 2 -10 -3 -9 -11 -13 -18 -9 -6 3 -2 -4 9 -17 11 -13 14 -20 6 -15
-11 6 -13 -1 -9 -34 3 -33 1 -40 -11 -36 -11 4 -11 2 -2 -8 11 -14 13 -99 1
-92 -8 5 -6 -47 3 -62 10 -16 -3 -44 -17 -36 -6 3 -2 -4 8 -16 20 -22 20 -22
0 -15 -15 6 -17 4 -7 -6 8 -8 9 -20 2 -37 -5 -15 -5 -22 0 -18 5 3 12 1 16 -5
3 -5 0 -10 -8 -10 -16 0 -18 -31 -2 -42 6 -5 4 -8 -5 -8 -13 0 -13 -2 -1 -9
12 -8 13 -15 3 -35 -9 -20 -8 -28 4 -41 12 -11 12 -15 2 -15 -10 0 -10 -2 1
-9 10 -7 11 -10 1 -16 -10 -6 -9 -11 5 -22 11 -7 15 -13 9 -13 -5 0 -9 -18 -9
-39 0 -22 3 -37 8 -34 4 2 7 -1 7 -6 0 -6 -5 -11 -12 -11 -6 0 -3 -7 8 -16 10
-8 12 -12 4 -8 -13 7 -13 5 -1 -9 7 -9 10 -17 6 -17 -4 0 -2 -7 5 -15 7 -8 9
-15 5 -15 -4 0 -3 -6 3 -12 15 -19 15 -30 0 -39 -10 -7 -10 -9 0 -9 6 0 12 -9
12 -20 0 -11 5 -20 10 -20 6 0 10 -5 10 -11 0 -5 -5 -7 -10 -4 -6 4 -2 -8 9
-26 14 -22 17 -37 10 -45 -6 -8 -4 -16 8 -25 17 -13 17 -13 3 5 -10 13 -11 17
-2 12 7 -4 20 -25 29 -47 8 -21 18 -39 22 -39 3 0 6 -11 6 -24 0 -17 -4 -22
-15 -18 -13 5 -13 3 -1 -11 11 -14 11 -17 0 -17 -11 0 -11 -2 1 -10 8 -5 10
-10 4 -10 -6 0 -10 -10 -9 -23 1 -12 -6 -34 -16 -48 -10 -14 -15 -30 -11 -34
4 -5 1 -4 -7 0 -11 6 -13 4 -8 -7 4 -11 -1 -18 -15 -21 -13 -4 -19 -11 -15
-21 4 -10 1 -13 -9 -9 -8 3 -14 2 -12 -3 4 -15 -13 -54 -23 -54 -6 0 -8 -4 -4
-9 3 -5 -2 -16 -10 -25 -9 -8 -17 -19 -18 -23 -1 -4 -7 -7 -13 -7 -6 1 -9 -7
-7 -17 4 -15 2 -18 -13 -12 -13 5 -16 3 -11 -10 4 -11 -1 -18 -14 -22 -10 -4
-17 -11 -14 -16 4 -5 -1 -9 -10 -9 -10 0 -13 -5 -9 -12 4 -6 3 -8 -4 -4 -6 3
-16 0 -24 -7 -7 -7 -22 -19 -33 -26 -19 -11 -18 -12 5 -6 20 4 19 2 -8 -12
-20 -10 -31 -22 -27 -30 2 -8 1 -12 -3 -9 -13 8 -44 -22 -36 -35 4 -7 3 -10
-4 -5 -6 3 -16 -3 -22 -14 -6 -11 -15 -18 -21 -15 -5 4 -9 -1 -9 -9 0 -8 -9
-18 -20 -21 -11 -4 -18 -11 -15 -16 4 -5 1 -9 -5 -9 -6 0 -22 -12 -35 -26 -14
-15 -25 -23 -26 -18 0 5 -4 -1 -10 -14 -5 -14 -13 -20 -21 -16 -8 5 -9 2 -4
-11 5 -15 4 -16 -9 -5 -12 10 -15 10 -15 -3 0 -8 -9 -17 -21 -20 -11 -3 -23
-14 -26 -25 -3 -12 -17 -22 -35 -26 -21 -4 -29 -10 -24 -21 3 -9 0 -15 -7 -15
-7 0 -23 -9 -35 -21 -12 -11 -27 -17 -34 -13 -7 4 -8 3 -4 -4 4 -7 2 -12 -4
-12 -6 0 -8 -5 -4 -12 4 -7 3 -8 -4 -4 -6 4 -21 -3 -32 -14 -11 -11 -26 -18
-32 -14 -6 4 -9 3 -6 -2 3 -5 -3 -17 -14 -26 -10 -10 -18 -15 -18 -12 0 4 -6
1 -13 -5 -8 -6 -17 -8 -21 -4 -4 4 -4 0 0 -10 4 -12 1 -17 -10 -17 -9 0 -16
-4 -16 -10 0 -5 -7 -10 -16 -10 -9 0 -27 -12 -41 -28 -18 -21 -22 -22 -17 -7
7 20 7 20 -9 0 -8 -11 -13 -23 -11 -27 3 -4 -4 -5 -15 -3 -15 3 -18 0 -14 -12
4 -11 2 -14 -5 -9 -7 4 -12 2 -12 -4 0 -7 -7 -9 -16 -6 -13 5 -14 3 -6 -6 8
-10 4 -13 -14 -14 -15 -1 -22 2 -18 10 3 6 -2 2 -10 -8 -11 -14 -16 -15 -16
-6 0 9 -5 8 -16 -6 -8 -10 -13 -13 -9 -6 8 16 -7 16 -24 -1 -11 -9 -13 -9 -7
1 9 15 -10 16 -19 2 -4 -7 -12 -7 -18 -2 -17 12 -36 9 -48 -8 -9 -12 -10 -11
-6 7 5 21 4 21 -19 6 -19 -12 -24 -13 -24 -2 0 11 -2 11 -10 -1 -9 -13 -10
-13 -11 0 0 10 -3 8 -9 -5 l-9 -20 0 20 c-1 17 -3 17 -11 5 -8 -12 -10 -12
-10 -1 0 10 -3 11 -13 2 -8 -6 -17 -8 -20 -4 -4 3 -7 1 -7 -6 0 -9 -5 -9 -22
0 -18 10 -20 9 -14 -6 5 -14 4 -15 -7 -7 -10 9 -17 8 -27 -1 -10 -10 -11 -9
-5 3 8 13 7 13 -8 1 -9 -7 -17 -10 -17 -6 0 5 -10 0 -22 -11 -13 -10 -17 -12
-11 -4 10 13 8 16 -8 16 -10 0 -19 -3 -19 -7 0 -9 -27 -6 -36 4 -4 4 -14 1
-22 -5 -18 -16 -42 -19 -42 -6 0 6 -6 5 -15 -2 -12 -10 -15 -10 -15 0 0 9 -4
9 -17 -1 -15 -12 -16 -12 -8 1 8 13 7 13 -8 1 -12 -9 -17 -10 -17 -2 0 7 -5 9
-10 6 -6 -4 -8 -10 -6 -14 3 -4 -17 -6 -44 -4 -28 1 -50 -1 -50 -6 0 -4 -21
-7 -47 -5 -34 1 -51 -3 -61 -14 -7 -10 -11 -11 -7 -4 3 6 1 12 -4 12 -6 0 -11
-4 -11 -8 0 -4 -9 -8 -20 -9 -13 -1 -18 2 -13 10 4 7 0 6 -10 -2 -9 -7 -17
-10 -17 -5 0 5 -5 2 -10 -7 -6 -10 -20 -15 -37 -13 -16 1 -31 -4 -38 -13 -10
-13 -14 -13 -20 -3 -6 9 -4 11 5 5 9 -6 11 -4 6 4 -6 9 -13 8 -29 -6 -11 -10
-17 -12 -13 -6 5 9 2 11 -8 7 -9 -3 -13 -11 -9 -18 4 -7 1 -6 -7 1 -11 10 -18
9 -34 -5 -11 -9 -16 -11 -11 -3 5 9 3 12 -6 9 -8 -3 -14 -10 -14 -16 0 -5 -4
-14 -9 -19 -5 -5 -6 -3 -2 4 4 8 2 13 -6 13 -8 0 -20 -6 -27 -13 -12 -10 -13
-9 -7 7 5 15 4 17 -7 8 -8 -7 -18 -8 -22 -4 -5 4 -5 1 -1 -5 5 -9 0 -13 -13
-13 -12 0 -21 -4 -21 -10 0 -5 -5 -10 -11 -10 -5 0 -7 4 -4 10 3 5 1 10 -5 10
-6 0 -13 -7 -16 -15 -5 -12 -10 -13 -20 -4 -11 9 -14 9 -14 0 0 -7 -4 -10 -9
-7 -11 7 -42 -4 -37 -13 2 -3 -20 -6 -50 -5 -30 1 -54 -3 -54 -8 0 -4 -10 -8
-22 -8 -13 0 -30 -4 -38 -10 -9 -6 -17 -5 -22 3 -4 7 -10 3 -17 -13 -5 -14
-10 -19 -10 -12 -1 10 -6 10 -21 2 -11 -6 -20 -7 -20 -3 0 4 -6 -1 -13 -12 -9
-12 -16 -14 -21 -7 -4 6 -13 9 -21 6 -8 -4 -12 -10 -9 -15 3 -5 -2 -9 -12 -9
-9 0 -23 -8 -31 -18 -10 -11 -12 -12 -8 -2 4 8 -1 6 -9 -4 -9 -11 -16 -17 -16
-13 0 4 -16 -2 -36 -13 -19 -11 -33 -16 -30 -11 3 5 -3 7 -14 4 -11 -3 -20
-10 -20 -15 0 -6 -6 -8 -14 -5 -7 3 -19 0 -25 -6 -7 -7 -15 -12 -19 -12 -4 -1
-17 -6 -30 -13 -12 -7 -32 -10 -42 -7 -12 4 -20 2 -20 -5 0 -6 5 -8 12 -4 7 4
8 3 4 -5 -4 -6 -11 -9 -16 -6 -5 3 -15 -1 -23 -9 -8 -8 -19 -11 -27 -6 -14 9
-60 -8 -60 -22 0 -5 -4 -6 -10 -3 -5 3 -10 1 -10 -4 0 -6 -7 -11 -15 -11 -8 0
-15 -4 -15 -10 0 -5 -9 -10 -20 -10 -11 0 -20 -5 -20 -11 0 -5 -4 -7 -10 -4
-5 3 -10 1 -10 -4 0 -6 -5 -11 -11 -11 -7 0 -17 -7 -23 -15 -6 -8 -22 -16 -36
-18 -14 -2 -25 -10 -25 -18 -1 -8 -7 -13 -14 -11 -7 1 -10 -2 -6 -8 3 -5 -6
-15 -20 -22 -18 -8 -22 -14 -13 -20 10 -6 10 -8 -2 -8 -17 0 -70 -52 -70 -68
0 -6 -10 -8 -21 -5 -16 4 -20 2 -17 -8 3 -8 -2 -20 -11 -27 -12 -10 -13 -12
-1 -6 13 7 13 5 2 -9 -8 -9 -11 -21 -7 -27 3 -5 1 -10 -6 -10 -6 0 -9 -8 -6
-20 3 -11 1 -18 -4 -14 -5 3 -9 -5 -10 -18 0 -13 -3 -39 -5 -58 -4 -37 -4 -46
-1 -84 1 -16 7 -22 17 -18 11 4 12 2 4 -7 -7 -7 -9 -22 -6 -33 4 -15 7 -17 14
-6 7 9 8 7 5 -10 -3 -14 -1 -20 6 -15 7 4 8 0 4 -11 -4 -9 -3 -15 2 -12 4 3
19 -6 31 -19 13 -14 20 -25 15 -25 -4 0 8 -16 28 -35 20 -19 33 -35 29 -35 -4
0 -2 -4 3 -8 6 -4 18 -20 28 -35 10 -15 22 -25 27 -22 11 7 51 -31 42 -39 -3
-3 4 -6 14 -6 11 0 26 -6 33 -13 11 -10 13 -9 7 3 -4 8 1 5 12 -7 15 -17 22
-19 32 -10 10 9 11 9 6 -1 -5 -7 -1 -12 9 -12 10 0 13 -5 9 -12 -5 -8 0 -9 14
-6 12 4 25 1 29 -4 4 -7 1 -8 -7 -3 -9 5 -11 4 -6 -3 4 -7 12 -12 18 -12 5 0
21 -9 35 -19 13 -11 31 -17 40 -14 12 5 15 2 10 -10 -3 -9 -3 -16 1 -16 15 3
72 -26 72 -36 0 -5 5 -3 10 5 9 13 10 13 10 0 0 -13 1 -13 10 0 8 13 10 13 10
-2 0 -9 5 -20 12 -24 7 -4 8 -3 4 4 -11 19 5 14 21 -6 10 -11 12 -12 8 -2 -4
8 1 6 9 -4 9 -11 16 -14 16 -8 0 10 5 10 20 2 11 -6 17 -16 14 -22 -5 -7 -2
-8 7 -2 22 14 39 13 39 -1 0 -8 8 -12 20 -10 11 2 20 -1 20 -7 0 -6 6 -6 15 2
13 11 14 10 8 -6 -6 -17 -5 -18 12 -4 15 12 17 12 10 1 -6 -11 -3 -13 14 -8
15 3 26 -1 36 -16 8 -12 15 -16 15 -9 0 10 6 10 28 -1 15 -7 39 -12 55 -11 16
1 27 -4 27 -12 0 -8 6 -11 16 -7 9 3 20 0 25 -8 7 -12 9 -12 9 1 0 12 2 12 9
2 4 -7 22 -14 39 -14 18 -1 32 -5 32 -10 0 -4 13 -8 29 -8 17 0 33 -5 37 -12
5 -7 3 -8 -6 -3 -8 5 -11 4 -7 -2 3 -5 24 -8 46 -7 23 1 41 -3 41 -8 0 -6 7
-7 16 -4 10 4 13 2 8 -6 -5 -8 -2 -9 12 -4 10 5 26 8 34 7 8 -1 23 -2 32 -2
11 0 15 -6 11 -16 -4 -10 -2 -14 5 -9 6 3 18 -4 28 -16 13 -18 15 -19 10 -4
-6 17 -5 17 11 5 11 -9 14 -10 9 -1 -9 14 3 16 24 2 11 -7 17 -5 22 8 6 16 7
16 7 0 1 -15 4 -16 27 -6 22 10 28 10 39 -5 10 -14 14 -15 18 -5 3 8 6 5 6 -7
1 -11 5 -16 9 -10 4 6 18 10 32 10 14 0 28 -4 32 -10 5 -6 8 -6 8 1 0 7 10 9
25 6 14 -2 22 -9 18 -15 -4 -6 0 -8 10 -4 10 3 17 2 17 -4 0 -6 6 -7 12 -3 19
12 48 12 48 1 0 -5 7 -4 15 3 12 10 15 10 15 -1 0 -11 2 -11 8 -1 8 12 42 7
42 -7 0 -4 12 -8 27 -9 15 -1 37 -9 50 -17 13 -9 23 -12 23 -7 0 5 13 9 30 8
16 -1 30 -5 30 -10 0 -5 7 -3 15 4 12 10 15 10 15 -1 0 -9 3 -10 8 -4 9 13 62
14 62 1 0 -5 3 -6 7 -3 3 4 12 -1 19 -11 12 -16 13 -16 14 3 l1 20 9 -20 c5
-11 9 -15 9 -9 1 11 61 7 61 -5 0 -4 16 -8 36 -9 20 -2 46 -8 57 -14 16 -8 22
-8 25 1 3 8 8 7 16 -3 13 -19 76 -29 76 -12 0 7 3 8 8 1 4 -6 14 -10 22 -10 8
0 21 -6 28 -15 12 -13 12 -13 6 0 -6 12 -5 13 7 4 16 -12 29 -12 47 -1 6 5 12
4 12 -2 0 -5 8 -8 18 -6 9 1 26 -2 36 -8 27 -14 187 -17 180 -3 -3 6 4 0 16
-14 12 -14 18 -18 14 -10 -6 12 -5 13 7 3 15 -12 36 -12 56 0 6 4 14 3 18 -2
3 -6 13 -7 22 -4 12 5 14 3 8 -8 -5 -8 2 -5 15 6 13 11 20 14 16 8 -5 -9 1
-12 23 -9 17 2 31 0 31 -4 0 -4 7 -11 16 -14 10 -4 13 -2 8 7 -5 9 -4 9 7 -1
14 -13 53 -17 45 -4 -3 5 1 9 9 9 8 0 12 -4 9 -9 -6 -9 32 -5 42 5 3 3 17 -1
30 -10 20 -12 23 -13 19 -1 -4 9 1 14 14 14 11 0 17 -4 15 -8 -6 -9 32 -5 41
4 7 7 55 -14 55 -24 0 -5 8 -8 18 -8 14 0 15 2 2 10 -9 6 -10 10 -3 10 6 0 15
-5 18 -10 10 -16 2365 -13 2365 3 0 8 4 7 10 -3 9 -13 14 -8 11 12 0 3 13 4
30 1 17 -2 29 -1 26 4 -3 5 3 9 13 9 10 0 16 -4 14 -8 -6 -9 32 -5 42 5 3 3
17 -1 30 -10 20 -12 23 -13 19 -1 -4 9 1 14 14 14 11 0 17 -4 14 -9 -3 -5 0
-7 8 -5 8 3 23 1 34 -5 17 -9 18 -8 7 5 -10 13 -9 15 13 13 14 -2 25 0 25 5 0
4 15 6 33 5 17 -2 38 2 46 8 11 9 13 9 8 0 -9 -15 44 -13 55 2 5 6 8 5 8 -2 0
-7 7 -10 15 -7 9 4 15 1 15 -7 0 -8 6 -5 14 6 11 16 27 19 92 20 44 1 88 6 99
12 11 5 39 9 63 8 24 0 46 3 48 7 3 5 11 5 17 1 20 -13 41 -12 49 0 6 9 8 9 8
0 0 -7 7 -10 15 -7 8 4 13 9 10 14 -2 4 28 6 68 6 54 -1 78 3 95 16 22 16 26
16 48 1 22 -14 24 -14 18 0 -6 16 19 18 33 2 4 -4 2 -5 -6 0 -10 6 -12 4 -7
-4 6 -9 13 -8 29 6 11 10 17 12 13 6 -10 -17 6 -16 30 1 15 11 22 12 33 3 12
-9 13 -9 7 1 -9 16 6 16 23 -1 9 -7 11 -7 8 -1 -4 7 0 15 9 18 11 4 15 2 11
-8 -5 -11 0 -13 24 -6 41 12 44 14 41 24 -2 5 4 4 12 -4 13 -10 16 -10 16 0 0
10 3 10 14 1 11 -10 15 -8 19 6 4 17 5 17 6 0 1 -11 6 -15 12 -11 11 6 22 8
67 13 7 0 11 4 9 9 -3 4 20 6 50 5 40 -2 54 1 50 10 -5 13 61 16 82 3 6 -4 11
-2 11 4 0 6 4 9 9 5 5 -3 17 2 26 12 13 13 19 13 25 4 5 -9 10 -10 14 -3 4 6
13 9 22 5 8 -3 21 2 28 12 9 13 15 15 20 6 5 -8 13 -8 26 -1 13 7 21 7 26 -1
5 -8 10 -6 16 5 5 9 13 14 19 11 5 -4 9 -2 9 4 0 7 8 7 26 1 35 -14 39 -13 23
7 -13 15 -12 15 10 4 15 -8 21 -9 17 -2 -4 6 -2 11 4 11 6 0 8 5 4 12 -5 8 2
9 24 5 20 -4 32 -2 32 4 0 6 5 7 10 4 6 -3 10 -1 10 5 0 7 12 9 29 7 17 -3 32
0 34 6 2 6 20 12 41 14 21 1 45 8 52 14 8 6 14 8 14 4 0 -4 7 -2 15 5 12 10
15 10 15 -1 0 -11 2 -11 10 1 5 8 10 11 10 6 0 -6 6 -1 14 9 13 18 13 18 24
-1 11 -19 11 -19 12 1 0 17 2 17 10 5 8 -12 10 -12 10 -1 0 11 3 11 15 1 13
-11 14 -10 9 5 -5 13 -4 16 4 11 7 -4 12 -2 12 6 0 9 3 9 10 -2 8 -12 10 -12
10 -1 0 8 3 11 7 8 3 -4 15 1 25 10 15 14 18 14 13 2 -4 -10 0 -16 9 -16 8 0
13 3 11 7 -2 3 0 12 6 20 6 11 9 12 9 2 0 -7 5 -10 10 -7 6 4 7 12 4 18 -5 8
-3 8 6 0 11 -10 17 -9 32 4 14 13 18 13 18 2 0 -11 2 -11 10 1 5 8 10 11 10 7
0 -5 10 -1 22 7 17 12 25 13 37 3 8 -7 12 -7 9 -2 -4 6 -3 17 3 25 7 12 9 12
9 1 0 -10 3 -11 14 -2 8 6 20 10 27 9 8 -2 13 2 12 8 -1 7 12 10 32 9 23 -1
35 3 35 12 0 14 21 14 31 0 3 -4 12 0 20 9 12 16 12 17 -1 9 -9 -5 -12 -5 -7
1 12 12 30 12 39 -1 8 -11 39 25 32 36 -2 4 3 9 11 13 8 3 15 1 15 -4 0 -15
17 -12 34 6 9 8 16 13 16 10 0 -3 13 8 29 25 16 17 32 30 35 30 22 -3 27 1 22
15 -3 8 -2 13 3 10 5 -3 14 1 21 10 11 12 15 12 21 2 7 -10 9 -8 9 5 0 10 5
15 10 12 6 -3 10 0 10 8 0 8 16 22 35 31 21 10 33 22 29 28 -4 6 -3 8 3 5 13
-8 45 27 36 39 -4 5 -2 4 6 -3 16 -14 52 13 44 33 -3 8 1 14 8 14 11 0 11 3
-1 10 -13 8 -12 10 4 10 16 0 17 2 5 17 -10 11 -10 14 -1 9 7 -4 12 -2 12 4 0
6 5 8 11 4 8 -5 10 1 7 19 -3 18 -1 24 8 20 9 -3 12 2 9 16 -3 14 0 19 7 15 7
-5 9 0 6 14 -4 12 -3 20 2 17 4 -3 11 3 15 12 3 10 1 19 -5 21 -8 3 -7 8 1 18
8 10 8 18 0 27 -8 10 -7 17 2 27 10 10 9 11 -2 5 -10 -6 -12 -4 -5 6 13 21 14
39 2 39 -7 0 -7 5 1 13 8 10 6 19 -9 34 -10 12 -16 24 -13 27 4 3 -1 6 -10 6
-10 0 -15 7 -12 20 2 11 -1 20 -6 20 -16 0 -39 27 -31 35 4 5 2 5 -5 1 -6 -3
-15 -1 -18 5 -4 5 -14 8 -22 5 -8 -3 -11 -1 -8 4 3 6 1 10 -4 10 -6 0 -11 7
-11 17 0 9 -3 13 -7 10 -3 -4 -12 -2 -20 4 -10 9 -11 15 -1 26 9 11 8 13 -3
11 -8 -2 -13 3 -12 10 3 11 -10 16 -30 13 -5 -1 -6 3 -3 8 3 5 -2 15 -11 22
-12 10 -14 10 -9 2 4 -7 2 -13 -3 -13 -6 0 -11 5 -11 11 0 5 -6 7 -12 3 -7 -4
-10 -4 -6 1 11 12 -11 35 -33 35 -11 0 -19 5 -19 10 0 6 -9 10 -19 10 -10 0
-22 8 -25 17 -6 14 -9 15 -15 4 -7 -10 -12 -8 -24 9 -10 14 -22 20 -32 16 -9
-3 -18 0 -21 9 -4 8 -10 12 -15 9 -5 -3 -9 3 -9 13 0 10 -4 14 -8 8 -8 -12
-44 -16 -37 -5 3 4 -2 11 -11 14 -10 4 -13 2 -9 -7 4 -6 0 -4 -8 5 -8 10 -17
15 -20 11 -4 -3 -7 -1 -7 6 0 7 -4 10 -9 7 -5 -4 -11 -1 -13 5 -2 5 -16 12
-32 13 -16 2 -35 12 -43 22 -10 13 -13 14 -13 3 -1 -10 -4 -9 -11 4 -8 13 -14
15 -23 8 -15 -13 -56 13 -56 35 0 12 -4 13 -22 3 -22 -12 -22 -11 -8 6 10 12
10 16 2 11 -7 -4 -20 -2 -29 6 -12 9 -15 9 -9 0 4 -6 2 -12 -3 -12 -6 0 -11 5
-11 10 0 6 -7 10 -15 10 -8 0 -15 5 -15 12 0 9 -3 9 -11 1 -13 -13 -39 -6 -56
15 -7 9 -13 11 -13 5 0 -8 -8 -8 -29 0 -17 6 -28 15 -25 19 7 11 -3 10 -27 -2
-10 -6 -19 -7 -19 -2 0 5 -11 8 -24 7 -15 -2 -27 3 -30 12 -5 12 -9 13 -21 3
-12 -10 -15 -10 -15 1 0 8 -12 15 -30 16 -22 2 -29 -1 -24 -10 4 -7 -5 -1 -19
12 -15 14 -27 19 -27 12 0 -7 -5 -9 -10 -6 -6 4 -8 11 -5 16 3 5 -1 6 -9 3 -9
-3 -14 -10 -11 -14 3 -5 -9 -1 -27 7 -17 9 -41 17 -52 18 -39 2 -67 16 -59 28
5 9 3 9 -8 1 -15 -13 -49 -10 -58 4 -3 5 -22 8 -41 8 -19 -1 -46 4 -59 11 -14
7 -28 10 -33 7 -4 -3 -8 1 -8 8 0 8 -3 9 -8 3 -10 -14 -32 -17 -32 -4 0 5 -4
7 -10 4 -5 -3 -10 -2 -10 4 0 10 -31 7 -53 -5 -8 -5 -8 -2 2 9 15 20 1 23 -17
5 -8 -8 -15 -9 -20 -3 -7 10 -32 16 -65 16 -9 0 -15 4 -12 8 2 5 -6 11 -20 13
-14 3 -25 1 -25 -5 0 -6 -7 -2 -16 9 -8 10 -13 13 -9 6 5 -9 -3 -12 -29 -10
-20 1 -36 6 -36 11 0 4 -4 6 -9 3 -5 -3 -14 1 -21 9 -7 8 -16 12 -21 9 -5 -3
-9 -2 -9 3 0 4 -28 7 -62 6 -35 -1 -68 3 -75 8 -17 14 -103 18 -103 5 0 -7 -3
-7 -8 -1 -4 6 -24 10 -45 10 -22 0 -41 4 -44 9 -4 5 0 6 7 1 9 -5 11 -4 6 4
-6 8 -12 9 -20 2 -9 -7 -16 -7 -23 0 -7 7 -13 8 -17 0 -4 -5 -14 -7 -22 -4 -9
3 -20 0 -25 -8 -5 -8 -9 -9 -9 -3 0 7 -7 15 -16 18 -8 3 -12 2 -9 -4 3 -6 1
-10 -4 -10 -6 0 -11 4 -11 9 0 5 -9 7 -20 4 -12 -3 -20 0 -20 7 0 10 -3 10
-15 0 -12 -10 -15 -10 -15 0 0 10 -3 10 -15 0 -12 -10 -15 -10 -15 0 0 10 -3
10 -14 1 -11 -9 -16 -9 -22 0 -5 8 -3 9 6 4 8 -5 11 -4 6 3 -4 6 -13 9 -21 6
-8 -4 -12 -10 -9 -16 8 -12 -38 13 -48 27 -5 6 -8 4 -8 -5 0 -9 -3 -11 -8 -5
-11 15 -32 17 -32 3 0 -6 -6 -4 -13 7 -10 12 -16 15 -21 6 -5 -8 -13 -8 -28 0
-16 9 -19 8 -13 -2 6 -8 4 -11 -7 -6 -9 3 -21 0 -28 -6 -10 -9 -11 -9 -6 0 5
9 0 13 -16 13 -39 0 -58 3 -58 10 0 4 -19 6 -42 5 -24 -1 -49 3 -57 9 -11 8
-13 8 -7 -2 6 -10 2 -11 -17 -7 -14 4 -28 2 -32 -5 -4 -7 -11 -8 -18 -2 -7 6
-23 9 -37 8 -14 -1 -38 1 -53 5 -20 6 -30 4 -34 -6 -3 -8 -9 -12 -14 -9 -5 3
-6 11 -2 17 4 7 0 6 -10 -2 -14 -11 -17 -11 -17 0 0 9 -3 10 -8 4 -8 -11 -41
-13 -58 -2 -7 4 -15 0 -18 -8 -5 -13 -9 -13 -28 -3 -13 7 -25 16 -28 19 -3 3
-25 6 -49 5 -27 -1 -45 4 -48 12 -4 9 -9 10 -19 1 -11 -9 -14 -8 -14 1 0 10
-3 10 -15 0 -12 -10 -15 -10 -15 1 0 11 -2 11 -10 -1 -9 -13 -10 -13 -10 0 0
12 -2 13 -9 1 -7 -11 -9 -11 -14 0 -4 12 -7 11 -16 -1 -10 -13 -12 -13 -21 0
-9 13 -10 13 -10 0 0 -12 -2 -12 -9 -1 -5 7 -11 9 -14 4 -8 -13 -46 -10 -74 5
-19 10 -22 10 -17 -2 4 -11 0 -13 -15 -9 -11 3 -18 10 -15 17 3 6 -2 2 -10 -8
-9 -11 -16 -15 -16 -8 0 6 -10 12 -22 12 -98 -2 -167 3 -162 11 3 5 -4 9 -15
9 -11 0 -22 9 -26 21 -5 16 -9 18 -15 9 -6 -9 -10 -6 -15 10 -6 18 -9 20 -16
9 -7 -11 -9 -10 -9 5 0 10 -10 27 -22 37 -11 11 -18 19 -15 19 9 0 -40 47 -55
53 -10 4 -10 6 1 6 10 1 7 7 -7 20 -12 10 -18 22 -14 26 4 5 -1 5 -11 2 -10
-4 -16 -3 -13 2 8 12 -19 33 -29 23 -5 -4 -5 -2 -2 5 4 6 2 13 -3 15 -6 2 -12
13 -13 26 0 12 -5 22 -9 22 -4 0 -8 6 -8 14 0 7 -7 19 -15 26 -8 7 -12 16 -9
21 3 5 -3 9 -13 10 -12 0 -13 2 -5 6 10 4 8 9 -7 19 -13 9 -18 21 -14 31 4 11
3 14 -5 9 -8 -5 -10 -2 -6 9 4 9 -2 23 -13 33 -11 9 -18 23 -16 30 3 6 1 12
-4 12 -5 0 -9 9 -10 20 -1 11 -9 27 -18 36 -9 9 -14 23 -11 31 3 7 -1 16 -9
19 -8 3 -11 12 -8 21 5 12 3 14 -8 8 -11 -7 -11 -5 1 10 8 10 10 16 4 12 -7
-4 -18 1 -25 10 -10 12 -10 14 -1 9 6 -4 12 -3 12 3 0 5 -4 11 -10 13 -5 2
-11 15 -12 30 -1 15 -5 25 -9 22 -4 -2 -9 4 -12 14 -2 9 -8 26 -12 37 l-8 20
17 -20 c17 -20 17 -20 7 2 -6 12 -16 24 -23 26 -10 4 -10 6 0 6 18 1 15 21 -4
21 -13 0 -14 3 -5 13 8 10 6 18 -7 33 -18 20 -22 60 -8 83 6 9 5 12 -1 8 -6
-4 -14 0 -17 9 -4 10 -2 13 7 8 6 -4 3 3 -8 16 -11 13 -14 20 -7 16 6 -4 12
-2 12 3 0 6 -4 11 -9 11 -5 0 -9 10 -10 23 -1 43 -4 57 -14 57 -5 0 -4 7 3 15
10 12 10 15 -1 15 -10 0 -10 3 -1 12 9 9 7 15 -6 25 -16 14 -16 14 2 9 16 -5
17 -4 7 8 -7 8 -10 19 -7 25 4 5 -1 17 -10 25 -14 15 -11 20 8 17 4 0 5 6 2
14 -4 8 -11 12 -16 9 -6 -4 -5 2 1 14 8 15 8 23 0 28 -8 4 -7 9 2 15 10 6 11
9 2 9 -7 0 -13 5 -13 11 0 5 3 8 8 6 4 -3 7 6 7 19 0 17 -4 23 -14 19 -10 -4
-8 2 5 16 10 12 14 19 7 16 -6 -4 -14 -3 -18 3 -3 5 -1 10 6 10 8 0 8 4 1 13
-7 8 -7 18 -2 27 5 8 6 18 4 22 -3 4 -7 17 -9 27 -3 15 0 18 13 14 14 -6 15
-4 4 9 -10 13 -10 17 0 21 10 4 10 6 -1 6 -11 1 -11 4 0 18 10 11 10 14 2 9
-7 -4 -13 -2 -13 3 0 6 6 11 13 11 9 0 8 3 -2 9 -11 7 -11 9 0 14 12 4 11 7
-1 16 -13 9 -8 15 12 12 8 -1 2 34 -8 51 -4 6 -3 8 3 5 6 -4 14 1 17 10 4 9 1
20 -6 24 -9 6 -9 11 1 22 9 12 9 16 -1 20 -11 4 -10 6 0 6 7 1 10 6 7 11 -3 6
2 10 12 10 15 0 16 2 3 10 -13 9 -13 10 0 10 13 0 13 1 0 10 -13 8 -13 10 2
10 12 0 15 5 11 17 -5 12 -3 14 8 8 11 -7 11 -5 -1 10 -9 11 -10 16 -2 11 11
-7 17 5 13 28 -1 5 5 6 13 3 13 -5 13 -2 5 20 -8 23 -8 24 6 13 14 -12 18 -6
14 26 0 3 10 14 22 25 12 10 18 19 13 19 -5 0 -2 5 6 10 8 5 15 14 15 20 0 6
7 15 15 20 8 5 11 10 6 10 -5 0 0 8 10 17 11 10 25 31 32 46 7 15 17 25 22 22
6 -3 7 1 4 9 -4 11 0 16 10 16 9 0 15 3 14 8 -4 15 23 52 34 46 7 -5 8 -2 3 6
-5 9 2 22 21 38 16 13 22 21 14 17 -8 -4 -1 6 17 22 24 24 29 33 20 42 -9 9
-8 11 6 6 16 -7 22 3 18 28 -1 5 2 6 7 3 5 -3 14 4 22 14 8 10 18 16 24 13 6
-4 4 2 -4 12 -8 10 -10 16 -5 14 11 -7 46 26 38 35 -3 3 2 8 11 12 9 3 13 10
10 15 -3 5 0 9 6 9 6 0 8 4 5 10 -3 6 1 7 10 4 9 -4 15 -2 13 3 -2 5 16 27 39
49 24 23 40 44 36 47 -3 4 -1 7 6 7 7 0 9 4 6 10 -4 6 1 7 11 3 12 -4 15 -3
10 5 -4 7 -2 12 4 12 6 0 8 5 5 10 -6 9 8 14 28 11 5 -1 6 3 2 9 -3 5 1 13 9
16 9 3 13 11 9 17 -4 6 0 8 10 4 11 -4 14 -2 10 9 -5 13 8 19 32 14 6 -1 7 1
3 5 -7 8 78 95 94 95 5 0 6 5 3 10 -3 5 -2 10 3 10 5 0 19 9 32 20 12 11 27
17 31 14 8 -5 13 10 10 28 0 5 2 7 7 7 18 -3 33 2 28 9 -3 5 6 19 19 30 14 12
25 19 25 15 0 -4 7 3 16 15 8 12 24 22 35 22 11 0 17 5 14 10 -6 9 8 15 29 11
5 -1 6 6 2 15 -6 15 -4 15 11 3 11 -9 14 -10 9 -1 -4 7 -2 12 4 12 6 0 8 5 5
10 -4 6 -3 10 2 9 22 -4 34 2 27 14 -5 7 0 6 11 -3 11 -9 16 -10 11 -2 -4 7
-2 12 4 12 6 0 8 5 4 12 -5 7 0 9 14 6 15 -4 19 -2 15 8 -3 8 -1 14 3 15 5 0
17 2 26 4 18 3 36 -27 19 -33 -6 -2 -11 -8 -11 -13 0 -6 6 -7 13 -3 8 6 8 3
-1 -9 -8 -9 -11 -21 -7 -27 3 -5 0 -10 -7 -10 -9 0 -9 -3 2 -10 8 -5 10 -10 4
-10 -12 0 -12 -36 1 -47 4 -5 5 -1 0 7 -7 12 -6 13 6 2 12 -11 12 -14 -1 -22
-10 -7 -11 -10 -2 -10 6 0 12 -11 12 -25 0 -14 5 -25 10 -25 6 0 10 -5 10 -11
0 -5 -5 -7 -11 -3 -6 3 -4 -5 5 -18 9 -14 13 -28 9 -33 -5 -4 -2 -5 5 -1 8 5
12 0 12 -13 0 -12 5 -21 11 -21 5 0 7 -4 4 -10 -3 -5 5 -15 19 -22 16 -7 26
-19 26 -32 0 -15 3 -17 8 -8 7 9 13 8 27 -8 10 -11 24 -20 32 -20 7 0 13 -5
13 -11 0 -5 4 -8 9 -4 5 3 16 -2 24 -10 9 -8 23 -15 32 -15 10 0 13 -5 9 -12
-4 -7 -4 -10 1 -6 4 4 21 0 37 -8 17 -9 28 -12 25 -6 -4 5 0 9 8 9 8 0 12 -4
10 -8 -5 -7 34 -22 50 -19 41 8 47 9 42 3 -10 -9 25 -32 40 -26 7 3 11 9 8 13
-3 5 4 6 15 3 11 -3 17 -9 14 -14 -3 -5 0 -9 5 -9 6 0 11 5 11 11 0 6 9 9 20
6 11 -3 18 0 17 7 -1 6 4 10 11 9 6 -2 12 5 12 15 0 14 2 15 10 2 8 -13 14 -8
12 11 -1 3 9 5 21 5 12 -1 22 5 22 13 0 8 9 17 20 22 11 4 16 8 11 8 -6 1 -1
8 10 17 10 8 12 13 4 9 -8 -4 -4 3 10 14 14 11 21 21 16 21 -6 0 -1 7 10 15
15 11 16 15 4 15 -9 1 -5 5 8 11 13 5 20 13 17 19 -3 5 -1 10 5 10 6 0 8 4 5
10 -3 5 -1 10 5 10 6 0 8 4 5 10 -3 6 -1 10 5 10 7 0 9 7 6 16 -3 8 -2 12 4 9
6 -3 10 1 10 10 0 9 5 13 10 10 6 -3 10 -1 10 4 0 6 -6 11 -12 11 -9 1 -8 5 3
13 9 7 15 20 13 29 -1 10 5 22 14 27 10 5 17 13 17 18 0 4 4 7 9 5 5 -2 4 4
-4 12 -9 12 -10 16 0 16 7 0 10 7 6 16 -4 10 -2 13 6 8 8 -5 9 -2 5 9 -3 10
-2 17 3 17 6 0 9 3 8 8 -1 4 4 18 11 31 11 19 11 22 -1 15 -7 -4 -4 3 7 16 12
14 14 20 5 15 -8 -4 -4 2 8 15 19 18 21 24 10 31 -10 6 -10 9 -1 9 7 0 12 3
12 8 -4 25 2 42 14 36 6 -4 9 -3 4 1 -4 5 0 19 9 33 9 13 11 21 5 18 -7 -5
-10 1 -8 14 2 12 10 26 18 31 8 5 10 9 5 9 -5 0 -2 8 6 18 25 29 33 46 17 37
-8 -4 -4 2 9 14 26 26 30 39 5 20 -17 -13 -17 -12 -2 6 9 11 20 30 23 43 4 12
14 22 21 22 9 0 12 6 9 15 -4 8 -1 15 4 15 6 0 9 10 7 21 -3 12 -2 19 2 16 8
-9 38 24 38 42 0 9 6 15 12 14 7 -2 12 0 12 5 -4 21 3 32 19 32 11 0 13 3 6 8
-9 5 -8 11 2 20 8 7 14 9 15 5 0 -4 4 2 10 15 5 13 13 21 18 18 5 -3 15 2 22
11 12 14 12 16 0 8 -10 -5 -12 -4 -7 3 4 7 17 17 29 24 21 11 21 10 7 -7 -9
-12 -1 -9 21 8 27 20 38 24 47 15 9 -9 13 -7 18 5 3 9 10 15 14 12 4 -3 10 2
14 10 3 8 12 12 21 9 8 -4 21 -1 29 5 7 6 16 8 19 4 4 -3 14 0 23 7 12 11 17
11 23 1 7 -10 9 -10 14 2 5 15 41 16 54 2 5 -4 3 -5 -4 -1 -6 3 -14 2 -18 -3
-6 -10 27 -7 45 4 6 3 10 1 10 -4 0 -6 5 -11 11 -11 5 0 7 4 4 10 -3 6 1 7 9
4 9 -3 13 -11 10 -16 -4 -6 4 -4 17 2 17 10 24 10 27 1 2 -6 8 -9 13 -5 5 3 9
-2 9 -11 0 -13 4 -14 22 -4 18 10 20 9 14 -6 -4 -12 -2 -16 7 -12 8 3 20 -3
27 -14 11 -14 16 -15 22 -6 6 9 8 9 8 0 0 -7 7 -13 15 -13 8 0 15 -5 15 -11 0
-5 4 -8 10 -4 5 3 19 -4 30 -15 11 -11 25 -18 31 -15 5 4 9 3 8 -2 -4 -20 2
-27 12 -13 9 12 10 11 6 -6 -4 -18 0 -22 19 -19 13 1 23 -1 22 -4 -2 -17 3
-31 11 -31 15 0 90 -78 82 -85 -3 -4 -1 -5 5 -3 14 4 75 -57 67 -66 -4 -3 1
-6 11 -6 9 0 14 -4 11 -10 -3 -5 -1 -10 5 -10 7 0 9 -7 6 -16 -3 -8 -2 -12 4
-9 6 3 13 -1 16 -9 3 -9 11 -13 17 -9 6 3 7 1 3 -5 -8 -14 17 -55 27 -45 4 3
7 -3 7 -15 0 -12 9 -26 20 -32 11 -6 20 -20 20 -31 0 -11 4 -18 9 -15 5 3 11
-4 14 -15 3 -12 10 -18 16 -14 7 3 8 0 5 -9 -3 -9 -1 -16 5 -16 6 0 11 -5 11
-11 0 -6 7 -17 15 -26 8 -8 12 -20 8 -26 -3 -7 -3 -9 2 -5 10 9 35 -16 35 -36
0 -9 4 -16 8 -16 5 0 9 -14 9 -31 0 -17 4 -34 9 -37 8 -6 13 -23 16 -59 1 -7
5 -13 10 -13 4 0 8 -9 8 -19 0 -11 5 -23 11 -26 6 -4 8 -14 5 -22 -3 -8 -2
-12 3 -9 5 3 12 -1 15 -10 3 -8 2 -13 -3 -10 -5 4 -7 -3 -4 -14 3 -11 10 -17
16 -13 6 3 7 1 3 -6 -4 -6 -2 -19 6 -28 10 -13 10 -15 0 -9 -7 4 -3 -9 8 -29
11 -20 17 -34 12 -31 -5 3 -9 -1 -9 -9 0 -8 4 -12 8 -9 4 2 10 0 14 -6 3 -5 1
-10 -6 -10 -7 0 -4 -7 7 -16 10 -8 13 -13 7 -9 -18 9 -16 -3 2 -21 12 -12 12
-20 4 -36 -6 -12 -7 -18 -1 -14 11 7 22 -16 22 -45 0 -14 4 -18 13 -13 8 5 8
2 -2 -9 -11 -14 -11 -17 0 -17 11 0 11 -2 -1 -10 -12 -8 -12 -10 -1 -10 10 0
11 -3 2 -14 -9 -10 -8 -16 4 -26 9 -8 21 -23 26 -34 10 -21 10 -21 -7 -1 l-17
20 8 -20 c4 -11 8 -27 9 -34 2 -8 8 -17 14 -19 7 -2 12 -8 12 -13 0 -6 -5 -7
-11 -4 -6 4 -5 -2 2 -14 10 -14 15 -17 21 -8 4 6 6 -2 4 -18 -2 -18 3 -35 13
-43 12 -10 12 -12 1 -6 -13 7 -13 5 -1 -9 7 -9 18 -14 25 -10 6 4 5 -1 -3 -10
-9 -11 -10 -17 -2 -17 6 0 11 -4 11 -10 0 -9 19 -36 48 -66 9 -9 10 -14 2 -14
-6 0 -8 -5 -5 -10 4 -6 11 -7 17 -4 6 4 8 2 4 -4 -3 -6 -1 -14 5 -17 5 -4 8
-13 5 -21 -3 -8 -1 -14 4 -14 5 0 6 -7 3 -17 -5 -12 -3 -14 7 -8 10 6 12 3 8
-13 -4 -15 -2 -22 8 -22 8 0 14 -5 14 -11 0 -5 -5 -7 -11 -4 -13 8 12 -37 26
-47 6 -5 6 -8 1 -8 -6 0 -1 -7 10 -16 10 -8 13 -12 6 -9 -11 6 -12 3 -3 -14 7
-11 17 -21 24 -21 8 0 8 -3 -2 -9 -10 -6 -10 -10 -1 -16 6 -4 9 -12 7 -19 -3
-8 5 -11 25 -10 22 2 28 -2 24 -12 -7 -19 4 -18 21 3 14 17 14 17 8 -1 -5 -19
-5 -19 12 -4 16 14 21 15 37 2 17 -12 21 -11 33 4 8 9 12 11 8 4 -4 -8 1 -12
14 -12 12 0 21 -6 21 -12 0 -9 4 -8 10 2 7 11 10 11 10 2 0 -7 5 -10 10 -7 6
4 7 12 3 18 -4 7 2 5 12 -3 17 -14 18 -13 12 4 -6 16 -5 17 8 6 12 -10 15 -10
15 1 0 9 3 10 8 4 9 -13 35 -19 28 -6 -3 5 1 12 10 15 8 3 13 2 9 -3 -4 -8 23
-8 33 -1 1 2 6 3 11 4 5 0 13 4 17 9 4 4 16 7 26 7 11 0 16 4 12 11 -4 7 2 6
17 -2 21 -11 23 -10 11 3 -10 13 -8 15 14 10 19 -3 31 1 41 13 7 11 13 14 13
6 0 -9 5 -8 16 3 8 9 21 13 27 9 7 -4 8 0 3 12 -5 15 -4 16 8 6 11 -10 16 -9
24 4 5 9 12 16 16 16 13 -3 76 31 76 41 0 6 8 7 17 4 10 -4 14 -4 11 0 -8 8
14 34 25 27 4 -2 7 1 7 7 0 6 4 9 9 5 5 -3 12 4 16 15 4 11 11 17 17 14 6 -4
33 18 61 47 27 30 47 47 43 39 -4 -8 -1 -7 6 4 21 31 58 69 58 61 0 -5 6 0 14
10 8 11 12 23 10 27 -3 4 3 5 12 1 12 -4 15 -3 10 5 -4 7 -3 12 3 12 13 0 70
58 63 65 -3 3 -1 5 5 5 6 0 13 9 16 21 4 14 10 18 19 13 10 -6 10 -4 -1 9 -12
15 -12 17 4 11 13 -5 16 -4 11 4 -6 11 5 16 25 14 4 -1 5 7 2 18 -3 12 1 22
11 26 9 3 13 10 10 15 -3 5 0 9 6 9 6 0 9 4 6 9 -3 5 2 12 11 15 15 6 15 8 3
16 -12 8 -10 10 7 10 16 0 21 4 17 15 -4 8 -1 15 6 15 7 0 10 7 6 16 -3 8 -2
13 2 11 4 -3 13 1 20 9 10 11 10 14 0 14 -9 0 -9 3 2 10 8 5 15 14 15 20 0 6
7 15 15 20 8 5 11 10 6 10 -6 0 -1 7 10 16 10 8 13 13 7 9 -7 -3 -13 -1 -13 4
0 6 5 11 11 11 5 0 7 6 3 13 -5 7 0 6 11 -3 10 -8 16 -10 12 -3 -10 16 2 65
14 57 5 -3 9 4 9 15 0 15 5 19 18 15 14 -5 14 -4 2 4 -12 9 -12 13 4 31 16 18
23 37 25 69 1 7 5 10 11 7 6 -4 7 1 3 11 -5 13 -3 15 8 9 11 -7 11 -5 -1 10
-8 10 -10 16 -4 12 7 -4 18 1 25 10 12 14 12 16 0 9 -9 -6 -12 -5 -9 5 3 8 11
13 18 11 10 -2 10 1 -1 14 -12 16 -12 17 2 12 12 -5 15 -1 13 17 -1 14 4 26
13 29 13 5 13 9 2 23 -8 9 -9 14 -2 10 11 -7 37 49 38 80 0 6 4 15 9 20 5 5 6
2 1 -6 -5 -10 -4 -12 4 -7 6 4 8 12 5 18 -4 6 0 14 7 19 12 7 12 9 0 9 -12 0
-12 2 1 13 9 6 18 23 20 37 2 15 9 24 17 22 12 -3 12 0 1 12 -7 9 -8 16 -2 16
5 0 9 8 8 17 0 10 4 17 10 16 7 -1 9 8 6 24 -3 17 1 30 12 39 12 8 14 14 6 19
-8 5 -6 13 6 26 9 11 14 22 11 26 -4 3 1 12 11 20 9 8 11 12 5 8 -7 -3 -13 -2
-13 3 0 6 8 13 17 16 15 6 15 8 3 16 -12 8 -11 10 5 10 17 0 17 2 5 10 -13 9
-13 10 0 10 13 0 13 1 0 10 -13 8 -13 10 2 10 12 0 15 5 11 17 -5 12 -3 14 8
8 12 -8 12 -6 0 8 -11 14 -11 18 2 23 9 3 13 13 9 26 -4 16 -2 19 9 13 8 -5
11 -5 7 0 -4 4 -2 15 5 23 9 13 9 14 0 8 -9 -5 -11 -2 -7 8 3 9 11 13 18 9 6
-4 5 1 -3 10 -9 12 -10 17 -2 17 7 0 9 5 6 10 -3 6 1 10 10 10 9 0 13 5 10 10
-4 6 -12 7 -18 3 -7 -3 -3 4 8 17 13 15 15 21 5 16 -8 -4 -6 0 4 8 15 12 16
16 5 16 -10 1 -9 4 4 11 15 9 16 13 5 27 -10 12 -10 14 0 8 8 -5 12 1 12 19 0
15 4 24 10 20 6 -3 7 1 4 9 -3 9 -1 16 6 16 6 0 9 4 6 9 -4 5 0 12 6 14 10 4
9 6 -1 6 -11 1 -10 6 5 23 10 12 13 18 7 14 -19 -11 -15 5 5 20 10 8 12 13 5
14 -7 0 -13 5 -13 11 0 5 4 7 10 4 6 -4 6 3 0 21 -9 23 -8 25 3 15 12 -9 14
-7 12 14 -2 14 2 25 8 25 7 0 5 5 -3 10 -8 5 -10 10 -5 10 6 0 16 10 24 21 11
18 11 23 -1 30 -10 7 -8 13 11 28 18 14 21 20 11 26 -9 6 -11 4 -5 -5 6 -9 4
-11 -5 -5 -10 6 -9 11 5 22 11 7 13 13 6 13 -9 0 -8 5 3 16 9 8 14 20 11 25
-4 5 0 9 7 9 10 0 10 2 1 8 -9 6 -8 15 6 39 14 22 16 34 8 42 -7 7 -6 12 6 16
9 4 13 13 11 20 -3 7 -1 16 5 20 15 9 14 28 -1 20 -7 -4 -6 0 4 7 13 11 14 18
5 33 -10 19 -9 19 8 5 17 -14 18 -14 6 9 -7 13 -9 21 -3 18 5 -4 14 5 20 18 7
14 7 27 2 30 -5 3 -7 12 -4 20 4 8 10 13 14 10 5 -3 12 0 16 6 4 7 3 9 -4 5
-6 -4 -10 1 -9 13 0 11 5 17 11 14 5 -4 7 1 3 10 -4 10 -2 17 5 17 7 0 7 4 -1
14 -9 11 -9 16 0 22 8 4 9 3 5 -4 -4 -7 -5 -12 -2 -12 3 0 10 9 16 20 9 16 8
19 -7 14 -17 -5 -17 -5 -1 9 10 8 15 17 11 20 -3 4 -1 7 7 7 10 0 10 4 -1 17
-12 14 -12 16 0 8 11 -6 13 -4 8 8 -4 12 -1 17 11 18 11 0 13 2 4 6 -10 4 -9
10 5 26 10 11 12 17 6 13 -8 -4 -13 -1 -13 9 0 9 5 13 10 10 6 -3 10 1 10 9 0
9 6 16 13 16 8 0 7 4 -3 10 -12 8 -12 10 -1 10 10 0 11 3 2 14 -9 11 -8 14 6
12 13 -1 18 6 17 27 -1 15 3 27 8 27 5 0 6 5 3 10 -3 6 -1 10 4 10 6 0 11 5
11 11 0 5 -6 7 -12 3 -9 -5 -9 -3 1 9 7 9 17 15 21 12 5 -3 6 5 2 17 -4 16 -2
19 9 13 12 -8 12 -6 0 9 -8 9 -10 16 -5 15 21 -4 26 2 13 18 -8 9 -9 14 -4 11
6 -3 19 6 30 21 18 24 18 25 0 11 -17 -14 -17 -14 -5 7 8 12 18 19 22 17 4 -3
8 4 8 15 0 12 5 21 11 21 5 0 7 5 4 10 -3 6 1 13 9 16 9 3 16 14 16 24 0 10
10 25 23 34 12 9 15 14 7 10 -12 -7 -13 -5 -3 8 7 8 9 19 5 23 -4 5 1 5 11 2
10 -4 16 -3 12 2 -3 5 1 15 8 23 8 7 19 24 26 36 8 15 18 21 27 18 8 -3 13 -2
10 2 -8 13 24 53 35 46 6 -3 16 2 23 12 9 12 15 14 20 5 5 -8 13 -4 27 11 11
13 17 16 14 7 -4 -10 0 -16 9 -16 8 0 13 3 11 7 -2 4 2 7 10 7 8 0 12 -4 9 -9
-3 -4 9 -6 25 -4 17 2 28 -1 25 -5 -3 -5 -1 -9 5 -9 5 0 12 6 14 13 4 8 6 6 6
-4 1 -17 27 -19 50 -4 8 4 12 4 9 -1 -3 -5 0 -14 7 -21 11 -10 15 -10 18 0 3
7 6 5 6 -4 1 -18 27 -33 42 -23 5 3 13 -6 19 -20 5 -14 12 -26 15 -26 4 0 3 5
0 10 -3 6 -1 10 4 10 10 0 15 -14 12 -32 0 -5 4 -8 10 -8 6 0 8 -7 5 -16 -3
-8 -2 -12 4 -9 6 3 10 -1 10 -10 0 -10 5 -13 12 -9 6 4 8 3 5 -3 -8 -12 25
-53 42 -53 10 0 15 -16 14 -48 -1 -6 3 -12 8 -12 5 0 5 -7 2 -17 -5 -12 -3
-14 8 -8 11 7 11 5 -1 -10 -9 -11 -10 -16 -2 -11 6 4 12 2 12 -3 0 -6 -6 -11
-12 -11 -9 0 -8 -3 2 -10 8 -5 11 -12 7 -16 -4 -4 -2 -13 4 -20 5 -7 6 -15 1
-18 -5 -3 -6 -26 -2 -51 4 -25 3 -45 -2 -45 -5 0 -6 -6 -1 -12 4 -7 6 -26 4
-41 -1 -15 3 -35 11 -44 8 -10 8 -14 1 -10 -6 4 -14 3 -18 -3 -3 -5 -1 -10 5
-10 7 0 10 -7 6 -15 -3 -8 0 -15 6 -15 7 0 6 -5 -2 -15 -10 -12 -10 -15 1 -15
8 0 6 -5 -6 -13 -13 -10 -15 -16 -6 -21 6 -4 9 -12 6 -17 -4 -5 -1 -9 6 -9 8
0 7 -5 -2 -17 -12 -14 -12 -15 -1 -9 12 7 12 4 2 -14 -7 -12 -10 -33 -7 -46 2
-14 -1 -24 -7 -24 -6 0 -4 -5 4 -10 9 -6 11 -10 3 -10 -7 0 -10 -6 -8 -13 2
-6 7 -50 9 -97 2 -47 5 -89 5 -93 1 -5 7 -5 14 -2 6 4 4 0 -6 -8 -17 -14 -17
-15 0 -22 42 -19 124 -4 92 16 -7 4 12 5 40 3 40 -4 51 -2 45 7 -5 9 -2 10 9
6 9 -3 19 -2 22 3 4 6 13 10 21 10 10 0 12 -5 8 -12 -6 -10 -5 -10 8 -1 8 7
19 9 24 5 4 -4 3 0 -4 9 -10 14 -8 16 19 14 23 -1 29 2 24 13 -4 12 -3 13 10
2 11 -9 15 -9 15 -1 0 7 5 9 10 6 6 -3 10 -1 10 5 0 6 4 9 9 5 5 -3 15 1 23 8
7 8 21 13 31 11 9 -1 15 2 11 7 -5 8 18 14 40 10 5 -1 3 5 -4 14 -11 13 -10
15 2 10 8 -3 27 6 44 21 16 15 31 27 34 26 3 -1 5 4 5 11 0 6 8 11 17 11 11
-1 15 5 13 18 -2 11 0 16 6 12 12 -7 40 27 33 38 -3 4 3 5 12 1 12 -4 15 -3
10 5 -4 7 -2 12 4 12 6 0 8 5 5 10 -3 6 1 10 10 10 9 0 14 4 11 9 -3 5 1 12
10 15 8 3 12 10 9 16 -3 5 -1 10 5 10 6 0 8 5 4 12 -5 8 -2 9 11 4 16 -6 16
-4 4 11 -8 9 -9 14 -4 11 15 -9 32 14 30 39 -1 12 2 20 7 17 4 -3 11 8 14 25
4 17 10 28 15 25 5 -3 9 6 9 20 0 14 4 26 10 26 5 0 7 7 3 15 -3 9 3 23 13 31
11 9 13 13 7 9 -18 -9 -5 26 15 42 9 8 11 13 4 13 -6 0 -9 7 -6 15 4 8 10 13
15 10 4 -3 6 4 4 16 -3 13 1 29 8 38 10 12 9 13 -3 7 -13 -6 -13 -6 0 6 9 7
15 24 14 38 -1 14 2 32 7 41 4 8 10 29 13 45 2 16 5 29 6 29 1 0 3 8 5 18 2
10 -1 14 -7 11 -6 -4 -8 -1 -6 7 3 8 11 13 18 11 10 -2 10 1 -1 14 -9 12 -9
15 -1 10 7 -4 12 -1 12 9 0 9 -4 14 -9 11 -5 -4 -7 3 -4 14 5 17 8 18 22 8 10
-8 10 -5 -3 10 -17 19 -16 26 5 24 3 0 5 10 5 23 0 13 -3 22 -6 20 -4 -2 -7 2
-7 10 0 8 4 12 9 9 4 -3 7 153 6 346 -2 305 -4 350 -17 345 -10 -4 -9 0 4 15
13 14 14 19 4 15 -10 -4 -15 3 -15 26 -1 23 1 28 8 18 8 -11 8 -10 4 4 -3 10
-6 21 -6 23 0 3 -6 2 -12 -2 -9 -5 -9 -2 1 9 8 11 9 17 3 17 -6 0 -9 7 -5 16
3 9 0 20 -7 24 -11 7 -11 11 -1 24 8 9 9 16 3 16 -6 0 -9 8 -7 18 1 9 -2 25
-7 35 -6 12 -5 17 4 17 10 0 10 2 -1 9 -11 7 -11 9 0 14 9 3 7 6 -6 6 -17 1
-17 3 -5 11 12 8 12 10 1 10 -11 0 -11 3 0 17 10 11 10 14 2 9 -10 -5 -13 3
-13 33 0 28 -5 43 -17 50 -17 10 -16 10 2 11 11 1 14 4 8 7 -7 2 -13 20 -13
39 0 19 -5 34 -11 34 -6 0 -9 7 -6 15 4 8 2 17 -3 20 -5 3 -7 12 -3 20 3 9 -1
15 -8 15 -11 0 -11 3 1 10 12 8 12 10 -5 10 -15 0 -17 2 -6 9 11 7 11 9 0 14
-9 4 -10 6 -2 6 7 1 10 8 7 16 -4 8 -10 13 -14 10 -9 -6 -7 21 2 31 9 8 -2 35
-12 29 -5 -3 -6 4 -3 15 3 11 1 20 -5 20 -5 0 -13 7 -16 16 -3 8 -2 12 3 9 5
-3 12 -1 16 5 3 5 -1 10 -9 10 -10 0 -13 6 -10 15 4 9 -1 18 -11 21 -11 5 -13
9 -5 14 8 5 7 11 -4 23 -12 11 -13 17 -3 20 7 3 5 6 -5 6 -10 1 -18 6 -18 12
0 5 6 7 13 4 6 -4 4 0 -5 8 -13 10 -15 16 -6 25 9 9 9 12 0 12 -7 0 -12 7 -12
15 0 8 -4 15 -10 15 -5 0 -10 5 -10 11 0 5 6 7 13 4 6 -4 4 0 -5 8 -14 11 -15
16 -5 26 9 10 8 11 -7 5 -13 -5 -17 -4 -12 4 4 7 2 12 -4 12 -6 0 -8 5 -5 10
8 14 -4 52 -15 45 -5 -3 -11 -1 -15 5 -3 5 -1 10 5 10 7 0 5 7 -4 16 -9 8 -13
21 -9 27 3 7 3 9 -2 5 -12 -11 -34 23 -35 54 0 17 -7 29 -19 33 -12 4 -18 12
-14 20 3 8 -2 18 -11 21 -9 3 -16 15 -16 26 0 10 -4 16 -10 13 -9 -5 -14 7
-11 27 0 4 -8 10 -19 13 -11 4 -18 10 -15 14 2 5 -3 17 -11 27 -9 10 -12 13
-8 5 5 -9 3 -12 -4 -7 -7 4 -12 12 -12 17 0 6 -18 28 -40 49 -22 21 -40 36
-40 34 0 -3 -7 1 -15 10 -8 8 -15 23 -15 33 0 15 -2 16 -10 3 -8 -13 -10 -12
-10 3 0 10 -4 15 -10 12 -5 -3 -10 1 -10 9 0 10 -6 13 -15 10 -8 -4 -15 -1
-15 6 0 9 -4 9 -17 -1 -15 -12 -16 -12 -10 4 5 14 2 16 -18 13 -17 -3 -23 -1
-19 6 5 7 1 9 -9 5 -10 -4 -20 0 -25 10 -7 11 -11 12 -16 4 -5 -8 -11 -7 -22
3 -8 9 -22 12 -31 9 -10 -4 -14 -2 -9 5 4 8 -3 8 -25 2 -25 -7 -30 -6 -25 5 4
11 0 12 -19 5 -17 -6 -25 -6 -25 1 0 6 -5 7 -10 4 -5 -3 -10 0 -10 7 0 10 -2
10 -9 -1 -7 -11 -9 -11 -14 0 -5 12 -7 12 -15 1 -7 -11 -10 -10 -16 3 -3 10
-12 15 -21 11 -8 -3 -15 0 -15 6 0 9 -3 9 -11 1 -9 -9 -16 -8 -27 3 -8 8 -21
13 -29 10 -8 -3 -21 1 -29 9 -19 18 -38 20 -28 3 6 -9 3 -9 -9 0 -9 8 -22 10
-28 6 -8 -4 -9 -3 -5 4 5 8 -2 12 -19 12 -18 0 -24 4 -19 13 5 7 0 6 -11 -3
-10 -8 -16 -10 -12 -4 3 6 -8 18 -26 28 -24 13 -27 13 -13 2 11 -9 14 -16 7
-16 -6 0 -23 11 -36 24 -20 21 -25 22 -28 8 -4 -13 -5 -14 -6 -2 -1 8 -12 20
-26 27 -19 8 -24 8 -19 0 3 -7 -1 -4 -10 7 -8 10 -20 15 -25 11 -6 -3 -14 1
-17 10 -4 9 -13 14 -22 10 -12 -4 -12 -3 -3 9 9 11 8 14 -6 12 -10 0 -21 -5
-25 -11 -4 -5 -8 0 -8 13 0 13 -4 21 -9 17 -6 -3 -14 3 -20 12 -6 10 -11 12
-11 6 0 -8 -8 -5 -20 7 -11 11 -25 20 -31 20 -5 0 -7 5 -4 10 3 6 -1 10 -9 10
-9 0 -16 5 -16 10 0 6 -7 10 -15 10 -7 0 -18 7 -23 17 -6 10 -16 14 -27 9 -15
-5 -16 -4 -6 8 9 11 9 16 0 22 -8 4 -9 3 -5 -4 4 -7 1 -12 -8 -12 -8 0 -18 5
-22 12 -5 7 -2 8 7 3 8 -4 1 6 -15 23 -17 18 -32 32 -34 32 -3 0 3 -9 13 -20
10 -11 13 -20 7 -20 -6 0 -16 14 -24 30 -12 28 -21 34 -41 31 -5 -1 -6 3 -3 8
3 5 -8 23 -24 41 -16 18 -27 36 -24 41 3 5 -3 6 -12 2 -12 -4 -15 -3 -10 5 4
7 2 12 -4 12 -6 0 -9 4 -6 9 3 5 -1 11 -9 15 -8 3 -15 12 -15 21 0 8 -4 15
-10 15 -5 0 -10 12 -10 26 0 14 -4 23 -10 19 -6 -4 -10 7 -10 25 0 20 -4 29
-11 25 -6 -4 -10 -1 -8 6 3 29 -1 50 -11 44 -5 -3 -10 -1 -10 4 0 6 6 11 13
11 9 0 8 3 -2 9 -8 5 -10 14 -6 21 6 9 4 11 -5 5 -10 -6 -12 -4 -7 8 4 10 2
17 -4 17 -6 0 -9 9 -6 20 3 11 1 23 -5 26 -6 4 -5 10 3 15 11 7 9 9 -6 9 -18
1 -18 2 -3 10 10 6 15 19 13 31 -3 13 4 29 18 41 12 11 17 17 11 14 -23 -11
-22 22 1 46 13 14 21 29 18 32 -4 3 -1 6 6 6 7 0 9 5 6 10 -3 6 -1 10 5 10 6
0 8 4 5 10 -3 6 1 7 9 4 11 -4 16 0 16 14 0 11 8 26 17 33 15 12 16 12 8 -1
-5 -9 -5 -12 1 -7 5 5 10 13 10 18 1 5 2 14 3 20 0 5 5 8 10 4 6 -3 13 1 18 9
4 8 14 16 22 18 18 4 76 61 73 71 -1 5 2 6 8 2 6 -3 7 -12 4 -18 -5 -9 -3 -9
6 0 11 10 16 9 27 -5 11 -14 12 -14 8 -1 -4 10 0 16 9 16 8 0 13 -4 10 -9 -3
-4 -1 -8 5 -8 5 0 13 5 16 10 10 16 25 12 26 -7 0 -11 3 -13 6 -6 3 10 10 10
26 1 20 -10 21 -10 8 6 -12 14 -12 16 3 10 9 -3 16 -10 16 -14 0 -5 10 -6 23
-3 18 4 19 3 7 -6 -13 -9 -13 -11 -1 -11 8 0 26 -10 40 -22 23 -21 24 -21 11
-2 -8 11 -3 7 12 -8 15 -15 35 -28 45 -28 9 0 13 -3 10 -6 -9 -9 33 -45 44
-38 5 3 9 0 9 -7 0 -15 47 -59 54 -51 3 3 6 -5 6 -18 0 -19 2 -21 15 -10 13
11 14 10 9 -5 -5 -13 -4 -16 4 -11 7 4 12 1 12 -9 0 -8 9 -19 21 -23 11 -5 20
-11 20 -15 -2 -20 0 -30 5 -24 8 7 34 -17 34 -32 0 -6 6 -10 13 -9 6 2 11 -3
9 -9 -1 -7 2 -13 7 -13 5 0 12 -8 16 -19 6 -21 45 -69 45 -56 0 4 11 -5 25
-21 14 -16 25 -32 25 -35 0 -3 11 -12 25 -19 13 -7 22 -17 19 -22 -3 -4 0 -8
6 -8 6 0 8 -5 4 -12 -4 -6 -3 -8 4 -4 6 3 14 1 17 -5 4 -5 13 -8 21 -5 8 3 19
-3 26 -13 9 -15 17 -17 34 -11 12 5 25 6 30 2 4 -4 4 -1 0 6 -4 7 -1 15 8 18
9 3 16 12 16 20 0 8 3 13 8 12 4 -2 8 1 9 5 1 4 9 15 18 23 8 9 12 20 9 26 -4
7 -2 8 5 4 6 -4 14 0 17 8 3 9 11 13 17 9 5 -3 7 -1 3 5 -3 6 1 17 10 26 8 9
12 21 8 27 -4 8 -3 9 4 5 7 -4 12 -1 12 8 0 9 3 15 8 15 19 -3 25 2 12 11 -11
7 -11 10 -2 10 7 0 10 4 7 10 -3 6 1 7 9 4 11 -4 16 0 16 15 0 12 5 21 11 21
5 0 7 5 4 10 -3 6 -1 10 4 10 6 0 10 6 9 13 -2 6 3 11 10 9 8 -1 11 2 8 7 -8
12 4 42 14 36 4 -3 11 2 14 11 3 8 2 12 -4 9 -6 -3 -7 1 -4 10 4 8 15 20 25
26 11 5 17 14 14 20 -4 5 3 23 15 39 12 16 18 34 15 40 -3 5 2 10 12 10 15 0
16 2 3 10 -13 8 -13 10 2 10 9 0 20 5 24 12 4 6 3 8 -3 5 -6 -4 -14 0 -17 9
-3 9 -2 12 4 9 6 -4 15 7 21 23 6 17 17 33 26 36 13 5 13 9 2 23 -10 12 -10
14 -1 9 7 -4 12 -2 12 4 0 6 5 8 13 4 8 -5 8 -2 -2 9 -10 12 -10 17 -2 17 7 0
11 10 9 24 -1 13 4 31 12 42 13 16 13 17 0 10 -9 -4 -8 -1 3 7 18 15 24 33 8
22 -6 -3 -9 3 -8 14 0 10 6 17 12 15 7 -3 12 7 12 23 3 55 7 73 18 69 7 -2 12
2 12 10 0 7 -4 11 -9 8 -4 -3 -8 -1 -8 5 0 5 8 15 18 20 9 6 11 11 5 11 -7 0
-13 5 -13 11 0 5 5 7 10 4 6 -3 10 -1 10 4 0 6 -5 11 -11 11 -5 0 -7 5 -4 10
4 6 11 7 17 4 6 -4 5 3 -2 16 -9 16 -9 20 -1 15 8 -5 10 1 5 19 -4 18 -2 26 7
26 11 0 11 3 -1 10 -13 9 -13 10 0 10 13 0 13 1 0 10 -8 5 -10 10 -4 10 7 0
14 11 16 25 4 18 2 23 -6 18 -7 -5 -3 0 7 10 19 16 19 17 1 17 -18 1 -18 1 -2
14 20 15 14 27 -10 19 -14 -4 -14 -3 -3 5 7 5 11 14 7 20 -3 6 -1 14 5 18 8 5
9 3 4 -6 -5 -9 -4 -11 4 -6 6 4 8 13 4 19 -12 20 -15 59 -4 52 7 -3 8 0 5 9
-3 9 -10 13 -15 10 -5 -3 -5 5 0 18 4 13 7 31 6 41 -2 9 2 17 8 18 7 0 3 4 -8
9 -11 5 -14 9 -7 9 6 1 12 6 12 12 0 5 -5 7 -11 3 -8 -4 -8 0 0 15 9 16 9 21
-1 22 -7 0 -4 4 7 9 17 7 17 9 3 9 -10 1 -18 6 -18 12 0 5 4 7 10 4 6 -3 7 1
4 9 -3 9 -11 16 -18 16 -6 0 -5 4 3 9 12 8 12 12 2 25 -8 9 -11 29 -9 47 3 20
0 33 -9 36 -11 4 -11 8 -1 21 11 13 11 14 -1 7 -11 -6 -13 -3 -9 13 4 12 2 25
-3 28 -6 3 -9 13 -8 22 3 26 -11 52 -30 53 -11 0 -12 2 -3 6 10 4 9 10 -5 26
-10 11 -12 17 -5 13 20 -12 14 8 -8 24 -14 10 -16 16 -7 22 9 6 9 8 -1 8 -7 0
-10 5 -7 10 3 6 -2 10 -12 10 -14 0 -15 2 -5 9 11 6 10 11 -3 24 -9 9 -13 21
-10 27 3 5 1 10 -4 10 -6 0 -11 6 -11 13 0 7 -9 19 -20 27 -14 10 -16 16 -7
22 9 6 9 8 -1 8 -7 0 -10 5 -7 10 3 6 0 10 -8 10 -17 0 -30 27 -20 42 3 6 2 9
-3 6 -5 -3 -15 0 -22 8 -8 9 -9 14 -2 14 7 0 7 7 -1 23 -12 21 -11 21 7 8 10
-8 1 3 -21 23 -22 21 -33 34 -25 30 13 -7 13 -5 1 9 -7 9 -17 14 -22 11 -5 -3
-9 2 -9 10 0 9 -5 16 -11 16 -5 0 -7 4 -4 10 3 5 -1 10 -10 10 -9 0 -14 4 -11
8 3 5 -6 16 -20 26 -13 11 -24 25 -24 33 0 8 -4 11 -10 8 -5 -3 -10 1 -10 9 0
8 -10 18 -21 21 -15 5 -18 10 -9 15 8 5 7 9 -7 15 -10 5 -21 7 -25 7 -8 -2
-12 14 -9 31 1 6 -14 11 -31 8 -4 0 -10 8 -13 19 -3 10 -15 22 -27 26 -14 4
-17 9 -8 14 8 5 7 9 -7 15 -10 5 -21 8 -25 7 -4 -1 -10 7 -13 18 -4 11 -11 20
-16 20 -6 0 -7 4 -4 10 6 9 -8 14 -28 11 -5 -1 -6 3 -2 9 3 5 1 10 -4 10 -6 0
-11 7 -11 16 0 11 -5 14 -17 10 -10 -4 -14 -4 -11 -1 8 8 -54 71 -66 67 -5 -2
-6 4 -2 13 3 9 2 14 -3 11 -5 -3 -17 5 -27 19 -13 17 -20 21 -26 12 -5 -8 -8
-4 -8 11 0 13 -6 22 -16 22 -10 0 -14 5 -10 16 3 8 2 13 -3 9 -13 -7 -83 63
-76 75 4 6 3 10 -2 9 -19 -5 -41 13 -36 28 4 11 2 14 -5 9 -7 -4 -12 -2 -12 4
0 6 -5 8 -12 4 -6 -4 -8 -3 -5 2 3 5 -10 27 -29 49 -19 22 -34 44 -34 49 0 5
-3 6 -6 3 -11 -11 -43 34 -37 50 4 11 2 14 -5 9 -7 -4 -12 -1 -12 8 0 9 -6 16
-12 16 -9 0 -8 4 2 10 12 8 12 10 1 10 -8 0 -11 7 -8 20 3 10 0 18 -5 17 -6
-1 -13 4 -16 12 -3 9 0 11 8 6 9 -6 9 -3 1 13 -8 14 -8 23 -1 27 8 5 8 11 1
19 -6 7 -8 25 -5 40 6 37 7 40 4 46 -5 15 -8 41 -3 36 7 -6 43 32 43 46 0 10
22 6 33 -7 5 -6 6 0 4 13 -6 23 -5 24 15 5 12 -10 18 -13 15 -7 -4 7 0 15 9
18 12 5 15 2 10 -11 -6 -17 -5 -17 8 0 13 17 32 24 22 8 -4 -5 3 -7 14 -4 11
3 20 9 20 14 0 5 5 9 11 9 5 0 7 -5 4 -10 -7 -11 23 -9 42 3 6 4 15 3 18 -3 5
-8 12 -7 23 2 12 11 16 11 20 0 3 -10 7 -10 17 -2 10 8 20 8 36 -1 17 -9 24
-9 27 0 2 6 8 9 13 5 5 -3 9 3 10 13 0 11 3 13 6 5 3 -9 12 -7 33 8 15 11 32
20 37 20 4 0 1 -5 -7 -10 -10 -7 -11 -10 -2 -10 7 0 15 7 18 15 4 8 10 13 14
10 5 -3 12 4 15 16 4 11 9 18 12 15 8 -8 84 74 77 85 -3 5 0 8 6 7 7 -2 23 14
37 36 13 21 20 35 14 32 -18 -12 -12 16 7 31 9 8 12 12 5 9 -6 -4 -14 -2 -18
4 -3 5 -1 10 5 10 6 0 8 5 4 11 -3 6 0 15 7 20 12 7 12 9 0 9 -10 0 -11 3 -2
14 9 11 9 16 0 21 -8 6 -7 10 2 16 9 6 10 12 4 17 -13 8 -13 22 -1 41 5 8 4
16 -5 22 -9 5 -10 9 -2 9 12 0 12 24 0 36 -4 4 -2 13 4 21 9 10 8 13 0 13 -8
0 -6 6 4 16 14 15 14 17 -2 30 -13 9 -14 13 -4 14 10 0 11 3 2 14 -8 10 -9 16
-1 21 5 3 10 11 10 16 0 6 -4 8 -8 5 -5 -3 -9 1 -9 9 0 8 5 11 11 8 6 -4 5 0
-2 9 -10 13 -10 17 0 21 11 4 11 6 0 6 -10 1 -10 6 -1 22 8 15 8 19 0 15 -11
-7 -15 4 -12 36 1 9 -3 19 -9 23 -7 4 -7 12 0 26 8 14 7 19 -1 19 -8 0 -8 4 1
15 9 11 9 15 1 15 -7 0 -11 8 -10 18 3 29 -1 43 -9 38 -5 -3 -9 1 -9 9 0 8 3
12 7 10 3 -2 6 5 6 15 0 10 -4 16 -8 14 -4 -3 -8 4 -8 15 0 12 -6 21 -12 21
-9 0 -8 4 2 10 12 8 12 10 1 10 -11 0 -11 3 0 17 10 11 10 14 2 9 -8 -4 -13
-2 -13 4 0 6 -5 8 -12 4 -10 -6 -10 -4 0 8 10 13 10 17 0 21 -10 4 -10 6 0 6
10 1 10 5 -2 17 -9 8 -14 20 -11 25 4 5 1 9 -6 9 -10 0 -10 3 -1 12 16 16 15
28 -2 28 -9 0 -13 7 -11 20 2 12 -2 20 -10 20 -9 0 -12 6 -9 15 4 8 1 15 -6
15 -9 0 -9 4 1 17 12 14 12 16 0 9 -9 -6 -12 -5 -9 5 3 8 -2 20 -9 28 -11 10
-11 16 -3 21 8 5 7 9 -4 13 -8 3 -20 16 -26 29 -11 22 -10 22 4 4 9 -11 16
-15 16 -8 0 6 -9 17 -21 25 -15 11 -17 16 -7 20 10 4 10 6 1 6 -7 1 -13 10
-13 21 0 11 -6 20 -14 20 -9 0 -13 7 -11 20 2 11 -1 23 -7 26 -7 5 -8 2 -3 -6
5 -8 4 -11 -3 -6 -6 4 -9 13 -5 21 3 8 0 15 -5 15 -6 0 -9 9 -7 21 4 18 2 19
-13 8 -9 -7 -14 -10 -10 -5 4 5 2 18 -4 30 -7 11 -11 24 -10 29 1 4 -5 7 -13
7 -10 0 -15 10 -15 33 0 25 -3 29 -11 17 -9 -12 -10 -11 -6 8 3 14 0 22 -8 22
-8 0 -12 8 -10 20 2 11 -1 19 -7 17 -6 -1 -13 4 -16 12 -3 9 0 11 9 6 7 -5 0
8 -15 28 -16 20 -32 37 -37 37 -5 0 -9 9 -9 20 0 11 -6 20 -14 20 -8 0 -18 4
-21 10 -3 6 2 8 12 5 10 -3 8 0 -4 6 -13 7 -23 18 -23 24 0 7 -9 15 -20 18
-12 3 -20 14 -20 27 0 16 -4 20 -16 16 -8 -3 -13 -2 -11 2 7 10 -19 32 -27 24
-4 -3 -4 1 -1 9 4 11 -1 18 -16 22 -14 4 -20 11 -16 21 4 10 0 14 -13 11 -13
-2 -22 6 -31 26 -9 22 -14 27 -20 17 -7 -10 -9 -8 -9 6 0 12 -5 16 -16 12 -8
-3 -12 -2 -9 4 3 5 1 18 -5 27 -11 17 -11 17 -6 -1 6 -16 4 -17 -9 -6 -8 7
-15 19 -15 27 0 13 -2 13 -17 2 -9 -8 -14 -9 -10 -2 9 14 -21 45 -35 37 -6 -4
-8 -3 -5 2 3 6 2 16 -4 24 -8 13 -9 13 -9 0 0 -10 -5 -7 -16 8 -8 12 -20 20
-25 17 -5 -4 -12 2 -16 11 -9 25 -43 57 -43 42 0 -9 -3 -8 -9 2 -6 8 -7 18 -5
22 3 4 -2 5 -10 2 -9 -4 -26 6 -42 23 -15 15 -24 22 -20 16 4 -7 3 -13 -2 -13
-6 0 -12 7 -16 15 -5 14 -53 40 -68 37 -4 -1 -5 4 -2 11 3 8 -4 13 -18 14 -13
1 -24 7 -26 13 -2 5 -10 10 -18 10 -8 0 -14 6 -14 13 0 9 -3 8 -9 -2 -7 -11
-10 -9 -16 8 -5 18 -9 20 -21 10 -12 -10 -13 -9 -8 6 5 12 4 16 -3 12 -6 -4
-16 0 -23 8 -7 8 -16 12 -21 9 -5 -3 -9 0 -9 5 0 6 -7 11 -15 11 -8 0 -15 5
-15 10 0 6 -5 10 -11 10 -5 0 -7 -6 -3 -12 4 -8 3 -10 -2 -5 -5 5 -9 14 -9 20
0 7 -8 11 -18 9 -9 -2 -20 4 -23 13 -3 8 -15 15 -26 15 -10 0 -17 4 -14 9 4 5
-5 8 -19 6 -16 -1 -25 3 -25 12 0 8 -4 11 -10 8 -5 -3 -10 -1 -10 5 0 6 -4 8
-10 5 -5 -3 -10 2 -10 12 0 15 -2 16 -10 3 -8 -13 -10 -12 -10 3 0 9 -5 17
-11 17 -5 0 -8 -4 -5 -8 3 -5 -1 -9 -9 -9 -8 0 -12 4 -9 9 3 4 -2 8 -10 8 -9
0 -16 5 -16 12 0 6 -3 8 -7 5 -3 -4 -13 -1 -21 6 -13 9 -14 9 -8 0 5 -9 2 -11
-8 -7 -9 3 -13 11 -9 18 4 6 -2 4 -12 -4 -10 -8 -16 -10 -12 -4 4 7 0 15 -9
18 -10 4 -13 2 -9 -7 4 -6 0 -4 -8 6 -10 12 -17 14 -22 8 -4 -8 -11 -6 -21 4
-18 18 -38 20 -28 3 4 -7 3 -8 -4 -4 -7 4 -12 15 -12 24 0 13 -2 14 -9 3 -5
-8 -11 -9 -15 -3 -3 6 -18 9 -32 6 -15 -3 -23 -1 -20 5 4 5 -6 9 -21 9 -54 -1
-64 2 -57 15 6 9 4 9 -7 1 -17 -13 -27 -12 -58 5 -13 7 -21 8 -17 3 3 -6 2
-13 -4 -17 -5 -3 -10 0 -10 8 0 12 -7 13 -34 7 -25 -5 -33 -4 -30 5 3 6 -2 12
-10 12 -8 0 -13 -4 -10 -9 3 -4 0 -8 -5 -8 -6 0 -11 5 -11 11 0 8 -6 7 -17 -2
-9 -8 -14 -9 -11 -4 3 6 -1 17 -10 25 -14 13 -15 12 -9 -3 3 -9 2 -19 -3 -22
-6 -4 -10 -2 -10 3 0 5 -12 8 -27 8 -16 -1 -36 2 -47 7 -13 6 -16 6 -12 -2 9
-13 -4 -14 -23 -2 -9 6 -22 6 -32 0 -12 -6 -19 -4 -24 8 -3 10 -9 13 -13 8 -9
-13 -52 -15 -52 -3 0 5 -5 6 -10 3 -6 -4 -7 -12 -4 -18 4 -7 -5 -1 -21 13 -16
14 -25 19 -21 13 9 -15 1 -16 -23 -4 -10 6 -23 6 -31 1 -8 -5 -22 -4 -32 1
-12 6 -18 6 -18 -1 0 -14 -22 -8 -38 10 -8 8 -11 9 -7 3 10 -20 -4 -36 -20
-23 -8 7 -27 10 -42 9 -15 -2 -34 0 -41 4 -6 5 -12 4 -12 -2 0 -6 -5 -11 -11
-11 -5 0 -8 4 -4 9 5 9 -2 9 -40 1 -21 -5 -36 0 -30 10 3 5 0 7 -9 4 -8 -3
-12 -13 -9 -22 3 -10 -2 -7 -12 6 -13 18 -20 21 -31 11 -10 -8 -14 -8 -14 0 0
6 -12 10 -28 9 -15 -1 -34 2 -42 7 -13 8 -13 6 0 -10 14 -17 14 -18 -8 -6 -13
7 -31 10 -39 7 -12 -5 -13 -3 -5 7 9 10 5 13 -16 12 -15 0 -33 -5 -41 -9 -9
-6 -12 -5 -7 2 4 6 -1 11 -11 11 -39 1 -53 5 -53 13 0 4 -5 8 -11 8 -5 0 -7
-5 -4 -11 4 -6 -3 -5 -15 3 -18 10 -24 10 -27 1 -3 -9 -10 -10 -21 -4 -19 10
-23 11 -49 11 -15 0 -16 2 -3 10 12 8 9 10 -13 10 -16 0 -26 4 -22 10 3 6 2
10 -3 10 -4 0 -18 9 -30 20 -12 12 -22 17 -22 11 0 -5 -7 -12 -16 -15 -9 -3
-12 -2 -9 4 4 6 -8 13 -25 17 -22 4 -28 8 -18 14 10 7 9 9 -5 9 -10 0 -21 8
-24 18 -4 9 -15 26 -25 37 -10 10 -17 24 -14 30 2 5 -4 19 -13 29 -9 11 -10
16 -3 12 6 -4 12 -3 12 3 0 5 -6 12 -12 14 -10 4 -10 8 1 15 9 7 10 12 2 16
-6 4 -11 12 -11 17 0 6 6 7 13 3 8 -5 8 -2 -2 9 -11 14 -11 17 0 17 12 0 12 2
0 9 -11 7 -11 10 0 15 12 5 12 7 0 12 -11 5 -8 11 10 26 13 11 18 17 12 13
-16 -8 -18 31 -3 40 6 4 10 12 9 18 -4 30 2 48 13 41 8 -5 9 0 6 14 -4 15 0
25 10 32 10 5 13 10 9 10 -4 0 -3 6 3 13 44 51 60 73 60 80 0 5 4 6 9 2 5 -3
12 4 16 15 3 11 13 20 21 20 8 0 17 6 20 14 3 9 13 12 22 9 9 -4 14 -3 10 2
-9 10 35 45 56 45 9 0 16 5 16 11 0 5 4 8 9 4 5 -3 13 0 17 6 4 8 9 7 16 -2 7
-11 9 -9 5 6 -3 17 1 21 26 23 17 2 37 8 44 14 7 6 13 7 13 2 0 -5 5 -2 10 6
5 8 21 16 36 17 15 1 31 8 35 15 7 10 9 10 9 -2 0 -11 3 -12 8 -3 4 6 20 10
35 9 15 -2 27 2 27 8 0 6 5 4 10 -4 8 -12 10 -12 10 -1 0 11 3 11 17 0 10 -8
14 -9 10 -2 -4 6 -3 14 3 18 5 3 10 1 10 -6 0 -7 7 -4 16 7 8 10 13 13 9 7 -4
-9 -1 -11 9 -7 9 3 16 10 16 16 0 5 5 6 10 3 6 -3 10 2 10 12 0 15 2 16 10 3
8 -12 10 -12 16 3 3 9 10 14 15 11 5 -3 12 2 15 10 3 9 10 14 14 11 12 -7 55
35 52 51 -2 8 4 17 12 20 9 3 13 10 10 15 -3 5 2 12 10 15 9 3 13 11 10 16 -4
6 -3 13 2 17 5 3 15 18 21 34 10 20 10 27 1 27 -7 0 -3 7 8 16 10 8 12 12 4 8
-13 -7 -13 -5 -2 9 8 9 11 21 7 27 -3 5 -3 10 2 10 4 0 8 25 7 55 0 31 3 58 8
61 4 3 8 10 8 15 0 6 -6 7 -12 3 -10 -6 -10 -5 -1 7 10 12 10 18 0 29 -9 10
-9 11 1 6 6 -4 12 -2 12 3 0 6 -5 11 -11 11 -8 0 -8 5 1 15 10 12 10 15 0 15
-10 0 -10 3 0 15 10 12 10 15 0 15 -9 0 -9 4 1 17 10 11 10 14 2 9 -12 -7 -18
17 -14 53 2 7 -2 10 -7 7 -11 -7 -10 19 1 30 4 4 -1 13 -11 21 -16 12 -16 13
3 7 20 -6 20 -5 1 10 -14 11 -15 16 -6 16 10 0 9 3 -3 13 -9 6 -18 24 -19 38
-2 19 -6 25 -18 21 -8 -3 -12 -1 -7 3 4 5 0 19 -9 33 -9 13 -11 21 -5 18 7 -5
9 -1 5 8 -3 9 -10 13 -15 10 -5 -3 -9 2 -9 10 0 9 -5 16 -11 16 -5 0 -7 4 -4
10 3 5 -5 21 -19 35 -14 14 -22 25 -18 25 4 1 -3 9 -16 20 -14 11 -20 24 -16
31 4 8 3 9 -4 5 -8 -5 -12 0 -12 12 0 12 -9 22 -21 25 -15 4 -20 11 -15 23 6
15 4 15 -11 3 -11 -9 -14 -10 -9 -1 4 7 2 12 -5 12 -7 0 -10 3 -6 6 3 3 -10
21 -29 39 -19 18 -34 39 -34 47 0 10 -3 9 -10 -2 -9 -13 -10 -13 -11 0 -1 8
-1 19 0 24 1 5 -5 6 -14 3 -9 -4 -15 -1 -15 8 0 8 -8 15 -17 15 -9 0 -13 3
-10 6 7 7 -30 44 -45 44 -4 0 -8 8 -8 18 0 14 -2 15 -10 2 -9 -13 -10 -13 -11
0 -1 8 -1 19 0 24 1 5 -5 4 -13 -4 -13 -10 -16 -10 -16 4 0 9 -8 16 -17 16
-14 0 -15 2 -5 9 10 6 6 11 -17 19 -19 7 -31 18 -32 29 0 11 -3 13 -6 5 -3 -9
-14 -4 -33 17 -16 16 -31 27 -34 24 -3 -3 -8 2 -12 11 -3 9 -13 16 -21 16 -8
0 -11 5 -8 10 3 6 -1 10 -10 10 -10 0 -13 5 -9 12 4 6 3 8 -4 4 -6 -3 -21 4
-33 16 -12 13 -19 16 -15 8 5 -9 2 -9 -7 2 -8 10 -18 14 -22 10 -5 -4 -5 -2
-2 4 4 6 -3 20 -15 30 -14 12 -19 14 -13 4 4 -8 -2 -5 -14 8 -12 12 -26 20
-32 17 -5 -4 -9 3 -9 14 0 15 -5 19 -20 16 -11 -2 -19 -1 -17 3 5 10 -30 42
-37 35 -3 -4 -6 -1 -6 5 0 7 -7 12 -16 12 -8 0 -12 5 -9 10 5 9 -16 15 -38 11
-5 -1 -6 2 -4 6 3 5 -1 17 -9 28 -8 10 -14 15 -14 10 0 -4 -9 2 -19 14 -11 12
-23 23 -28 24 -4 1 -7 6 -5 10 1 5 -7 6 -18 2 -16 -5 -19 -3 -13 11 5 14 3 16
-11 11 -11 -4 -15 -3 -11 4 4 6 -2 13 -14 16 -11 3 -19 9 -16 13 3 5 -4 11
-15 15 -11 3 -20 14 -20 23 0 15 -2 15 -10 2 -9 -13 -10 -13 -11 0 -1 8 -1 19
0 23 1 5 -3 6 -9 2 -5 -3 -10 -1 -10 5 0 6 -4 8 -10 5 -5 -3 -10 1 -10 9 0 8
-9 18 -20 21 -11 4 -18 11 -15 16 4 5 1 9 -5 9 -6 0 -8 5 -4 12 5 8 2 9 -9 5
-11 -4 -17 -1 -17 7 0 8 -11 21 -25 30 -14 9 -25 23 -25 32 0 9 -5 12 -12 8
-6 -4 -8 -3 -5 3 4 5 -2 19 -13 30 -10 12 -16 25 -12 29 4 5 -2 2 -12 -6 -14
-11 -18 -11 -12 -2 5 9 0 21 -13 33 -12 11 -18 25 -15 31 4 6 3 8 -3 5 -13 -8
-36 17 -25 28 4 5 -1 5 -10 2 -10 -3 -17 -3 -17 1 3 20 -2 32 -15 32 -7 0 -21
15 -30 33 -8 17 -16 28 -16 24 0 -4 -6 -2 -14 5 -8 7 -11 17 -8 22 3 5 -2 6
-12 3 -9 -4 -15 -3 -13 1 2 4 -4 15 -15 25 -10 9 -18 15 -18 12 0 -3 -6 0 -14
7 -8 7 -11 17 -8 22 3 5 0 6 -7 2 -6 -4 -14 0 -17 8 -3 9 -10 14 -14 11 -5 -3
-13 3 -19 12 -5 10 -13 18 -18 18 -4 0 -7 4 -5 8 1 5 -2 6 -7 3 -13 -8 -42 4
-35 15 3 5 -1 6 -9 3 -8 -3 -18 0 -23 7 -5 8 -3 10 7 4 8 -5 11 -4 6 1 -12 12
-30 12 -39 -1 -5 -6 -8 -2 -8 8 0 10 -4 15 -10 12 -5 -3 -10 0 -10 8 0 11 -7
13 -22 9 -15 -4 -19 -2 -14 7 6 8 2 11 -10 9 -13 -2 -18 2 -16 12 3 12 1 12
-9 3 -10 -10 -15 -9 -26 5 -10 12 -12 12 -8 2 5 -12 4 -12 -7 1 -7 9 -21 15
-30 13 -10 -1 -18 2 -18 7 0 6 -4 7 -10 4 -5 -3 -10 -1 -10 6 0 8 -5 7 -17 -2
-11 -10 -14 -10 -9 -1 6 11 -5 17 -26 13 -5 0 -8 4 -8 10 0 8 -6 7 -17 -2 -9
-8 -14 -9 -10 -3 4 7 0 14 -7 17 -8 3 -17 1 -20 -6 -3 -7 -5 -6 -5 3 -1 14
-19 20 -73 23 -9 1 -14 6 -11 11 4 5 -3 7 -15 4 -12 -4 -20 -3 -17 2 3 4 -2
10 -10 14 -8 3 -15 0 -15 -7 0 -9 -2 -9 -8 0 -4 7 -17 14 -29 16 -12 1 -28 9
-37 16 -8 7 -21 9 -27 5 -8 -4 -9 -3 -5 4 4 7 1 12 -8 12 -9 0 -16 5 -16 10 0
6 -5 10 -11 10 -5 0 -7 -5 -3 -12 5 -7 3 -8 -5 -4 -7 5 -10 15 -7 23 3 8 2 12
-3 9 -5 -3 -14 1 -21 9 -10 12 -16 13 -26 4 -11 -9 -14 -8 -14 1 0 7 -7 10
-14 7 -10 -4 -13 -1 -9 9 3 9 -1 14 -14 14 -10 0 -25 9 -33 20 -8 11 -20 20
-28 20 -7 0 -15 7 -18 15 -4 8 -10 12 -15 9 -5 -3 -9 -2 -8 3 5 27 -1 35 -16
23 -13 -11 -14 -10 -9 5 5 13 4 16 -4 11 -7 -4 -12 -3 -12 3 0 6 -15 26 -34
45 -19 19 -32 37 -29 40 4 3 1 6 -5 6 -18 0 -43 32 -37 47 3 11 1 13 -10 9 -9
-3 -15 0 -15 9 0 8 -11 26 -25 40 -15 14 -20 25 -13 25 10 0 9 3 -2 9 -8 6
-18 7 -24 4 -5 -4 -7 1 -3 11 4 10 1 19 -8 22 -8 4 -12 10 -9 15 3 5 -2 9 -11
9 -9 0 -14 4 -10 9 3 5 1 12 -5 16 -6 4 -8 11 -5 16 3 5 -1 6 -10 3 -11 -5
-14 -2 -9 12 4 11 3 16 -1 12 -12 -11 -38 29 -29 45 4 6 4 9 0 5 -11 -9 -52
34 -48 50 2 8 -1 11 -7 8 -6 -4 -17 7 -26 23 -8 16 -21 33 -27 37 -10 6 -10 4
-3 -7 6 -8 3 -7 -6 3 -9 9 -19 15 -23 13 -3 -3 -2 1 4 7 15 18 12 26 -7 24 -9
0 -23 10 -30 24 -7 14 -13 19 -13 10 0 -11 -3 -10 -12 4 -21 37 -52 66 -70 66
-10 0 -18 5 -18 11 0 5 5 7 12 3 7 -4 8 -3 4 5 -4 6 -11 9 -16 6 -5 -3 -15 3
-22 15 -7 11 -18 20 -25 20 -7 0 -13 5 -13 12 0 6 -3 9 -6 5 -4 -3 -13 1 -21
9 -8 8 -19 12 -24 9 -5 -4 -9 0 -9 8 0 18 -30 32 -30 14 0 -7 -5 -4 -11 6 -5
9 -17 17 -24 17 -8 0 -15 6 -15 13 0 8 -4 7 -10 -3 -8 -12 -10 -12 -10 -1 0 8
-7 11 -20 8 -11 -3 -23 0 -27 5 -4 7 -1 8 7 3 9 -5 11 -4 6 4 -6 9 -11 9 -24
-1 -13 -11 -15 -11 -10 3 7 18 -22 21 -34 4 -5 -7 -8 -6 -8 1 0 15 -260 15
-260 0 0 -7 -3 -7 -8 -1 -10 15 -35 18 -26 4z m1424 -1004 c11 -13 10 -14 -4
-9 -9 3 -16 10 -16 15 0 13 6 11 20 -6z m-5220 -5 c0 -5 -5 -10 -11 -10 -5 0
-7 5 -4 10 3 6 8 10 11 10 2 0 4 -4 4 -10z m-2175 -3080 c3 -6 -1 -7 -9 -4
-18 7 -21 14 -7 14 6 0 13 -4 16 -10z m10019 -678 c3 -5 -1 -9 -9 -9 -8 0 -12
4 -9 9 3 4 7 8 9 8 2 0 6 -4 9 -8z m2094 -1047 c-3 -3 -9 2 -12 12 -6 14 -5
15 5 6 7 -7 10 -15 7 -18z m-14408 11 c0 -3 -4 -8 -10 -11 -5 -3 -10 -1 -10 4
0 6 5 11 10 11 6 0 10 -2 10 -4z m-1620 -3486 c0 -5 -5 -10 -11 -10 -5 0 -7 5
-4 10 3 6 8 10 11 10 2 0 4 -4 4 -10z m16875 -60 c3 -5 1 -10 -4 -10 -6 0 -11
5 -11 10 0 6 2 10 4 10 3 0 8 -4 11 -10z m-15705 -335 c-7 -9 -15 -13 -17 -11
-7 7 7 26 19 26 6 0 6 -6 -2 -15z m14077 -1230 c0 -8 -4 -12 -9 -9 -5 3 -6 10
-3 15 9 13 12 11 12 -6z m-15107 -779 c0 -2 -8 -10 -17 -17 -16 -13 -17 -12
-4 4 13 16 21 21 21 13z m677 -2431 c0 -8 -4 -12 -9 -9 -5 3 -6 10 -3 15 9 13
12 11 12 -6z m8366 -721 c-3 -7 -8 -12 -12 -9 -4 2 -8 -2 -8 -10 0 -8 4 -12 7
-10 4 3 8 -6 8 -20 0 -15 -5 -22 -12 -18 -6 3 -3 -3 7 -14 14 -16 15 -23 6
-29 -8 -5 -10 -3 -4 6 5 9 4 11 -4 6 -6 -4 -8 -13 -4 -19 4 -6 8 -32 9 -57 1
-25 6 -60 12 -79 6 -19 9 -37 7 -42 -3 -4 0 -11 6 -15 8 -5 9 -3 4 6 -5 8 -4
11 3 7 5 -4 9 -19 7 -33 -1 -16 5 -34 16 -45 12 -12 14 -19 7 -19 -9 0 -8 -4
2 -10 13 -9 13 -10 0 -10 -9 -1 -5 -6 10 -15 15 -9 19 -14 10 -15 -13 0 -13
-2 -1 -9 8 -5 11 -16 8 -26 -4 -9 -3 -14 2 -11 5 3 12 -1 15 -10 4 -10 2 -13
-7 -8 -6 4 -4 -2 6 -13 9 -11 14 -23 10 -26 -3 -4 -1 -7 5 -7 7 0 11 -3 11 -7
-3 -15 23 -73 32 -73 5 0 8 -6 7 -12 -2 -8 5 -12 16 -10 11 2 15 -1 11 -7 -5
-10 8 -15 19 -8 2 1 14 -10 26 -26 12 -15 26 -25 31 -22 5 4 6 -2 2 -11 -4
-11 -3 -15 5 -10 6 3 23 -6 38 -21 15 -16 21 -19 13 -8 -14 19 -14 19 12 0 15
-11 25 -23 22 -27 -2 -4 4 -5 13 -1 10 4 15 2 11 -4 -3 -5 -1 -10 6 -11 42 -3
55 -7 51 -14 -3 -4 6 -8 20 -8 14 0 26 -5 26 -11 0 -6 9 -9 20 -6 11 3 20 1
20 -4 0 -4 6 -6 14 -3 8 3 33 -4 56 -15 l43 -20 -19 21 c-21 23 -22 23 43 -10
15 -8 24 -8 28 -1 5 7 11 6 21 -2 8 -6 23 -9 34 -6 11 3 20 2 20 -2 0 -4 14
-6 30 -3 19 3 30 0 30 -7 0 -7 5 -9 13 -4 18 11 38 13 31 2 -3 -5 13 -9 35 -9
22 0 43 -5 46 -10 5 -8 11 -8 20 0 10 8 16 7 24 -7 7 -12 10 -13 11 -4 0 11 3
11 15 1 8 -6 20 -8 26 -4 8 4 9 3 5 -4 -4 -8 0 -12 11 -12 11 0 25 -6 32 -12
11 -11 12 -10 6 2 -8 13 -7 13 9 1 10 -8 35 -15 56 -15 23 0 36 -4 33 -10 -4
-5 1 -7 10 -3 12 4 17 1 17 -11 0 -15 2 -15 10 -2 7 11 10 11 10 2 0 -7 5 -10
10 -7 6 3 13 -1 16 -10 5 -12 9 -13 20 -4 13 11 19 2 15 -24 0 -4 2 -6 6 -6
23 4 43 -2 38 -11 -3 -5 1 -10 10 -10 10 0 13 -5 9 -12 -5 -7 -2 -9 8 -6 8 4
15 1 15 -5 1 -7 4 -27 8 -44 5 -23 4 -33 -4 -33 -7 0 -10 -4 -6 -9 3 -5 -5
-11 -17 -13 -13 -2 -22 -9 -21 -15 2 -8 -4 -10 -14 -6 -11 4 -14 3 -9 -5 4 -8
2 -10 -7 -6 -8 3 -17 -2 -20 -10 -4 -9 -12 -16 -20 -16 -7 0 -23 -10 -34 -22
-38 -41 -71 -68 -82 -68 -7 0 -9 -5 -6 -10 3 -6 -1 -13 -11 -17 -9 -3 -29 -18
-45 -32 -47 -44 -57 -50 -64 -43 -4 4 -6 3 -5 -3 5 -21 0 -36 -10 -30 -5 3
-10 1 -10 -5 0 -6 -4 -9 -9 -5 -5 3 -12 -4 -16 -15 -4 -11 -11 -18 -16 -15 -5
4 -9 2 -9 -4 0 -5 -9 -12 -20 -16 -11 -3 -19 -11 -17 -18 1 -6 -8 -16 -20 -22
-13 -5 -23 -16 -23 -24 0 -8 -3 -11 -6 -8 -4 3 -19 -7 -34 -23 -15 -16 -30
-26 -34 -23 -3 3 -6 1 -6 -6 0 -7 -5 -9 -12 -5 -7 5 -8 3 -4 -5 5 -8 0 -14
-13 -18 -11 -3 -18 -9 -15 -14 3 -5 -2 -9 -10 -9 -9 0 -16 -5 -16 -11 0 -5 -4
-8 -9 -4 -5 3 -12 -4 -16 -15 -3 -11 -12 -19 -18 -17 -7 1 -11 -4 -9 -11 1 -6
-1 -11 -5 -11 -21 3 -33 -2 -31 -13 2 -7 -5 -12 -14 -10 -9 1 -20 -3 -24 -9
-5 -8 -3 -9 6 -4 9 5 11 4 6 -3 -4 -7 -14 -12 -22 -12 -8 0 -17 -7 -20 -15 -4
-8 -10 -12 -15 -9 -5 3 -9 0 -9 -6 0 -6 -4 -9 -8 -6 -5 3 -16 -3 -25 -12 -27
-29 -45 -41 -51 -35 -3 4 -6 1 -6 -5 0 -7 -7 -12 -15 -12 -8 0 -19 -9 -25 -20
-6 -11 -15 -18 -21 -15 -5 4 -12 -1 -15 -10 -6 -13 -8 -14 -15 -3 -7 10 -9 9
-9 -4 0 -10 -5 -18 -11 -18 -7 0 -18 -8 -26 -17 -9 -11 -12 -12 -7 -3 4 8 -4
5 -18 -8 -13 -12 -28 -19 -31 -15 -4 3 -7 -1 -7 -10 0 -9 -5 -17 -11 -17 -5 0
-7 6 -4 13 4 6 0 4 -8 -5 -8 -10 -17 -15 -20 -11 -4 3 -7 2 -7 -4 0 -6 -9 -13
-21 -16 -13 -4 -18 -10 -13 -18 4 -8 3 -10 -5 -5 -6 4 -18 2 -26 -4 -8 -7 -15
-9 -15 -4 -1 5 -7 -2 -15 -16 -8 -14 -14 -19 -15 -12 0 7 -5 10 -10 7 -6 -4
-8 -11 -4 -16 3 -5 2 -9 -3 -8 -24 4 -43 -2 -37 -12 4 -7 1 -10 -7 -7 -7 2
-22 -4 -33 -14 -11 -10 -27 -18 -37 -18 -9 0 -19 -7 -23 -15 -3 -8 -14 -15
-25 -15 -11 0 -23 -5 -26 -10 -4 -6 -11 -8 -16 -5 -5 4 -9 -2 -9 -12 0 -15 -2
-16 -10 -3 -8 12 -10 12 -10 -5 0 -17 -2 -17 -10 -5 -6 10 -10 11 -10 3 0 -7
-7 -13 -16 -13 -9 0 -12 -5 -8 -12 5 -9 2 -8 -9 1 -16 12 -17 12 -10 -5 6 -17
5 -17 -10 -6 -8 8 -17 23 -19 35 -2 13 -9 21 -18 19 -8 -2 -12 0 -8 4 4 4 2
14 -5 22 -9 13 -9 14 1 8 6 -4 12 -3 12 3 0 5 -5 13 -11 16 -6 4 -8 14 -5 22
3 8 2 12 -3 9 -13 -8 -20 28 -9 48 6 10 5 16 -2 16 -5 0 -9 3 -9 8 1 4 0 12
-1 17 -1 6 -1 27 0 49 1 29 -1 36 -12 30 -10 -6 -11 -5 -1 7 16 20 17 30 1 41
-11 8 -11 10 0 15 10 4 9 9 -5 20 -10 8 -13 12 -7 9 7 -3 15 1 18 10 4 11 2
15 -7 11 -9 -3 -12 8 -11 44 2 35 -1 47 -9 42 -9 -5 -9 -3 -2 8 12 16 13 39 2
57 -5 7 -3 12 5 12 9 0 9 3 -2 10 -13 9 -13 10 0 10 12 1 11 3 -3 11 -14 8
-16 14 -6 25 9 11 8 14 -2 14 -9 0 -10 3 -4 8 6 4 10 17 11 29 0 19 -2 21 -15
10 -13 -10 -12 -7 2 15 10 17 13 29 7 33 -6 4 -8 10 -5 15 3 5 0 12 -6 16 -8
5 -7 9 2 14 10 7 10 12 -2 26 -11 14 -11 18 -1 22 10 3 8 8 -5 18 -12 9 -13
13 -5 14 8 0 10 5 5 12 -4 7 -6 26 -4 42 2 17 -1 26 -8 22 -10 -7 -8 25 4 44
3 6 2 10 -3 10 -11 0 -9 30 3 49 5 9 4 12 -3 7 -7 -4 -10 4 -10 22 1 16 -2 34
-6 41 -4 6 -2 11 4 11 6 0 8 5 3 13 -4 6 -6 20 -4 31 2 13 -1 16 -11 10 -9 -5
-8 -2 2 11 13 17 13 18 0 13 -12 -4 -14 3 -11 40 2 35 0 43 -10 37 -11 -6 -12
-5 -2 5 10 11 10 17 0 29 -8 10 -8 13 0 8 13 -8 12 11 -2 33 -5 8 -8 25 -6 38
1 13 -3 22 -11 22 -8 0 -9 3 -3 8 15 11 18 35 3 30 -10 -4 -13 9 -14 49 -1 35
-7 58 -15 64 -12 7 -11 9 1 9 9 0 11 3 5 8 -6 4 -10 14 -10 22 0 8 -5 21 -11
27 -7 7 -11 21 -10 30 2 10 -1 21 -7 24 -5 4 -6 12 -3 18 5 8 16 7 36 -4 16
-8 35 -15 42 -14 7 0 1 5 -15 11 -15 5 -24 14 -20 21 4 6 0 8 -10 4 -10 -3
-17 -2 -17 3 0 6 4 10 10 10 5 0 7 7 4 15 -4 8 -1 15 5 15 6 0 11 9 11 21 0
11 5 17 10 14 6 -3 10 1 10 9 0 9 5 16 11 16 5 0 15 14 20 30 6 17 15 30 19
30 4 0 22 21 39 48 16 26 42 59 56 74 14 15 25 31 25 35 0 4 15 20 33 36 17
16 25 26 17 22 -8 -5 4 11 28 35 23 24 42 47 42 52 0 5 5 6 12 2 8 -5 9 -2 5
10 -6 14 -3 17 9 12 13 -5 14 -3 6 6 -7 9 -5 19 8 36 11 13 22 22 26 20 4 -2
8 5 10 15 1 9 -2 17 -7 17 -15 0 2 27 24 38 26 11 49 -2 40 -24z m1147 -958
c0 -3 -4 -8 -10 -11 -5 -3 -10 -1 -10 4 0 6 5 11 10 11 6 0 10 -2 10 -4z
m2810 -1546 c0 -5 -2 -10 -4 -10 -3 0 -8 5 -11 10 -3 6 -1 10 4 10 6 0 11 -4
11 -10z m-10086 -946 c3 -8 2 -12 -4 -9 -6 3 -10 10 -10 16 0 14 7 11 14 -7z"/>
<path d="M12715 22710 c-3 -5 -1 -10 4 -10 6 0 11 5 11 10 0 6 -2 10 -4 10 -3
0 -8 -4 -11 -10z"/>
<path d="M10385 22100 c-3 -6 1 -7 9 -4 18 7 21 14 7 14 -6 0 -13 -4 -16 -10z"/>
<path d="M19610 15319 c0 -5 5 -7 10 -4 6 3 10 8 10 11 0 2 -4 4 -10 4 -5 0
-10 -5 -10 -11z"/>
<path d="M3835 12360 c-3 -5 -1 -10 4 -10 6 0 11 5 11 10 0 6 -2 10 -4 10 -3
0 -8 -4 -11 -10z"/>
<path d="M19166 8593 c-6 -14 -5 -15 5 -6 7 7 10 15 7 18 -3 3 -9 -2 -12 -12z"/>
<path d="M9565 6660 c-3 -6 1 -7 9 -4 18 7 21 14 7 14 -6 0 -13 -4 -16 -10z"/>
<path d="M10785 6570 c-3 -5 -1 -10 4 -10 6 0 11 5 11 10 0 6 -2 10 -4 10 -3
0 -8 -4 -11 -10z"/>
<path d="M9107 5613 c-10 -10 -8 -23 4 -23 5 0 8 4 5 9 -4 5 0 12 6 14 7 3 8
6 2 6 -6 1 -14 -2 -17 -6z"/>
<path d="M11637 4189 c7 -7 15 -10 18 -7 3 3 -2 9 -12 12 -14 6 -15 5 -6 -5z"/>
<path d="M11710 3826 c0 -2 7 -7 16 -10 8 -3 12 -2 9 4 -6 10 -25 14 -25 6z"/>
</g>
</svg>
